<?xml version="1.0" encoding="UTF-8" standalone="no"?> <svg xmlns="http://www.w3.org/2000/svg" viewBox="0 0 64 64"><g id="Outline"><rect x="21" y="11" width="2" height="2"/><rect x="25" y="11" width="2" height="2"/><rect x="29" y="11" width="2" height="2"/><rect x="33" y="11" width="2" height="2"/><rect x="37" y="11" width="2" height="2"/><rect x="41" y="11" width="2" height="2"/><rect x="21" y="15" width="2" height="2"/><rect x="25" y="15" width="2" height="2"/><rect x="29" y="15" width="2" height="2"/><rect x="33" y="15" width="2" height="2"/><rect x="37" y="15" width="2" height="2"/><rect x="41" y="15" width="2" height="2"/><rect x="21" y="19" width="2" height="2"/><rect x="25" y="19" width="2" height="2"/><rect x="29" y="19" width="2" height="2"/><rect x="33" y="19" width="2" height="2"/><rect x="37" y="19" width="2" height="2"/><rect x="41" y="19" width="2" height="2"/><rect x="21" y="23" width="2" height="2"/><rect x="25" y="23" width="2" height="2"/><rect x="29" y="23" width="2" height="2"/><rect x="33" y="23" width="2" height="2"/><rect x="37" y="23" width="2" height="2"/><rect x="41" y="23" width="2" height="2"/><rect x="21" y="27" width="2" height="2"/><rect x="25" y="27" width="2" height="2"/><rect x="29" y="27" width="2" height="2"/><rect x="33" y="27" width="2" height="2"/><rect x="37" y="27" width="2" height="2"/><rect x="41" y="27" width="2" height="2"/><rect x="21" y="31" width="2" height="2"/><rect x="25" y="31" width="2" height="2"/><rect x="29" y="31" width="2" height="2"/><rect x="33" y="31" width="2" height="2"/><rect x="37" y="31" width="2" height="2"/><rect x="41" y="31" width="2" height="2"/><rect x="21" y="35" width="2" height="2"/><rect x="25" y="35" width="2" height="2"/><rect x="29" y="35" width="2" height="2"/><rect x="33" y="35" width="2" height="2"/><rect x="37" y="35" width="2" height="2"/><rect x="41" y="35" width="2" height="2"/><rect x="21" y="39" width="2" height="2"/><rect x="25" y="39" width="2" height="2"/><rect x="29" y="39" width="2" height="2"/><rect x="33" y="39" width="2" height="2"/><rect x="37" y="39" width="2" height="2"/><rect x="41" y="39" width="2" height="2"/><rect x="21" y="43" width="2" height="2"/><rect x="25" y="43" width="2" height="2"/><rect x="29" y="43" width="2" height="2"/><rect x="33" y="43" width="2" height="2"/><rect x="37" y="43" width="2" height="2"/><rect x="41" y="43" width="2" height="2"/><rect x="21" y="47" width="2" height="2"/><rect x="25" y="47" width="2" height="2"/><rect x="29" y="47" width="2" height="2"/><rect x="33" y="47" width="2" height="2"/><rect x="37" y="47" width="2" height="2"/><rect x="41" y="47" width="2" height="2"/><path d="M14,62H62V60H60V28a1,1,0,0,0-1-1H47V8a1,1,0,0,0-1-1H41V3H39V7H30V5H28V7H26V2H24V7H18a1,1,0,0,0-1,1V60H15V21a1,1,0,0,0-.293-.707l-1.864-1.864L9.919,11.606a1,1,0,0,0-1.838,0L5.157,18.429,3.293,20.293A1,1,0,0,0,3,21V60H2v2H14Zm15-2V54h2v6Zm4,0V54h2v6ZM58,29V60H47V29ZM19,9H45V60H37V53a1,1,0,0,0-1-1H28a1,1,0,0,0-1,1v7H19ZM5,21.414l1.707-1.707a1,1,0,0,0,.212-.313L9,14.539l2.081,4.855a1,1,0,0,0,.212.313L13,21.414V60H5Z"/><rect x="7" y="22" width="4" height="2"/><rect x="7" y="26" width="4" height="2"/><rect x="7" y="30" width="4" height="2"/><rect x="7" y="34" width="4" height="2"/><rect x="7" y="38" width="4" height="2"/><rect x="7" y="42" width="4" height="2"/><rect x="7" y="46" width="4" height="2"/><rect x="7" y="50" width="4" height="2"/><rect x="7" y="54" width="4" height="2"/><rect x="48" y="31" width="8" height="2"/><rect x="48" y="35" width="8" height="2"/><rect x="48" y="39" width="8" height="2"/><rect x="48" y="43" width="8" height="2"/><rect x="48" y="47" width="8" height="2"/><rect x="48" y="51" width="8" height="2"/><rect x="48" y="55" width="8" height="2"/></g></svg>