<?xml version="1.0" encoding="iso-8859-1"?>
<!-- Generator: Adobe Illustrator 20.1.0, SVG Export Plug-In . SVG Version: 6.00 Build 0)  -->
<svg version="1.1" id="Layer_1" xmlns="http://www.w3.org/2000/svg" xmlns:xlink="http://www.w3.org/1999/xlink" x="0px" y="0px"
	 viewBox="0 0 115.593 115.595" style="enable-background:new 0 0 115.593 115.595;" xml:space="preserve">
<g>
	<path d="M51.929,113.165c1.567,1.568,3.652,2.43,5.868,2.43c2.217,0,4.301-0.863,5.869-2.43l49.494-49.499
		c1.57-1.568,2.433-3.65,2.433-5.87c0-2.217-0.862-4.302-2.431-5.869L63.666,2.43C62.098,0.862,60.014,0,57.797,0
		c-2.218,0-4.303,0.862-5.87,2.43L2.43,51.927C0.862,53.495,0,55.579,0,57.796c0,2.219,0.862,4.302,2.43,5.87L51.929,113.165z
		 M4.057,53.555L53.553,4.058c2.344-2.344,6.143-2.343,8.486,0l49.496,49.497c2.344,2.343,2.344,6.143,0,8.485L62.04,111.538
		c-2.344,2.343-6.143,2.343-8.486,0L4.057,62.04C1.713,59.697,1.713,55.898,4.057,53.555z"/>
	<path d="M40.614,55.013l2.191-2.191v4.383l-4.383,9.86l2.191,1.095L36.232,83.5h2.122l4.05-11.199l2.349-4.141h1.34l6.574,15.34
		h3.286l-6.574-15.34l4.383-1.095l-2.955-5.91l6.747-1.856l-1.485-5.4l-1.566,0.431l-0.456-2.283l6.996-1.739l1.881-1.608
		l1.257,9.976l-4.184,8.367l-2.574,19.874h2.96l5.182-18.506l2.8-2.414l1.047,8.368l7.321,12.552l3.138-2.092L74.64,72.274V59.95
		l7.399-1.929l-2.056-7.879l-2.207,0.576V47.17l-3.137-7.322l-5.231-4.184H68.98c1.065-0.811,1.764-2.081,1.764-3.523
		c0-2.453-1.987-4.441-4.441-4.441c-2.453,0-4.441,1.988-4.441,4.441c0,2.212,1.621,4.031,3.737,4.371l-2.997,3.772l-3.652,7.933
		l-5.229,1.819v0.385l-1.054-5.269l-3.705-3.981c0.654-0.688,1.061-1.612,1.061-2.636c0-2.118-1.717-3.835-3.835-3.835
		c-2.117,0-3.835,1.717-3.835,3.835c0,1.875,1.349,3.429,3.126,3.763l-3.395,3.446L40.753,51.5l-7.2,4l1.097,1.096L40.614,55.013z
		 M72.547,45.079l2.093,3.138v3.32l-2.093,0.546V45.079z M50.475,49.534l1.095,3.288l0.542,2.166l-2.332,0.642l-0.401-2.807
		L50.475,49.534z"/>
</g>
</svg>
