<?xml version="1.0" encoding="iso-8859-1"?>
<!-- Generator: Adobe Illustrator 21.0.0, SVG Export Plug-In . SVG Version: 6.00 Build 0)  -->
<svg version="1.1" id="Layer_1" xmlns="http://www.w3.org/2000/svg" xmlns:xlink="http://www.w3.org/1999/xlink" x="0px" y="0px"
	 viewBox="0 0 24 24" enable-background="new 0 0 24 24" xml:space="preserve">
<g>
	<path fill="#303C42" d="M21,16.1611328V4c0-1.1030273-0.8969727-2-2-2h-3c0-1.1030273-0.8969727-2-2-2h-4
		C8.8969727,0,8,0.8969727,8,2H5C3.8969727,2,3,2.8969727,3,4v12.1611328c0,0.5269775,0.277771,0.9911499,0.7000122,1.2594604
		l-0.6716919,1.9138794c-0.046875,0.1337891-0.0351563,0.28125,0.0332031,0.4057617
		c0.0678711,0.1245117,0.1860352,0.2138672,0.3237305,0.246582l3.4855957,0.8201294l-0.8449707,2.5348511
		c-0.0874023,0.262207,0.0541992,0.5454102,0.315918,0.6323242C6.3945313,23.9916992,6.4477539,24,6.5,24
		c0.2094727,0,0.4042969-0.1323242,0.4741211-0.3417969l0.8737793-2.6213379l4.0373535,0.9499512
		C11.9233398,21.9956055,11.9614258,22,12,22s0.0766602-0.0043945,0.1147461-0.0131836l4.0373535-0.9499512l0.8737793,2.6213379
		C17.0957031,23.8676758,17.2905273,24,17.5,24c0.0522461,0,0.1054688-0.0083008,0.1582031-0.0258789
		c0.2617188-0.0869141,0.4033203-0.3701172,0.315918-0.6323242l-0.8449707-2.5348511l3.4855957-0.8201294
		c0.1376953-0.0327148,0.2558594-0.1220703,0.3237305-0.246582c0.0683594-0.1245117,0.0800781-0.2719727,0.0332031-0.4057617
		l-0.6716919-1.9138794C20.722229,17.1522827,21,16.6881104,21,16.1611328z M4,4c0-0.5512695,0.4487305-1,1-1h3.5
		C8.7763672,3,9,2.7763672,9,2.5V2c0-0.5512695,0.4487305-1,1-1h4c0.5512695,0,1,0.4487305,1,1v0.5
		C15,2.7763672,15.2236328,3,15.5,3H19c0.5512695,0,1,0.4487305,1,1v12.1611328
		c0,0.2431641-0.1738281,0.4501953-0.4130859,0.4926758L12,17.9921875l-7.5869141-1.3383789
		C4.1738281,16.6113281,4,16.4042969,4,16.1611328V4z M12,20.9863281L4.1557617,19.140625l0.5015259-1.4287109l7.2557983,1.2802734
		C11.9418945,18.9975586,11.9707031,19,12,19s0.0581055-0.0024414,0.0869141-0.0078125l7.2557983-1.2802734l0.5015259,1.4287109
		L12,20.9863281z"/>
	<path fill="#303C42" d="M10.5,3.5c0.5512695,0,1-0.4487305,1-1s-0.4487305-1-1-1s-1,0.4487305-1,1S9.9487305,3.5,10.5,3.5z"/>
	<path fill="#303C42" d="M13.5,3.5c0.5512695,0,1-0.4487305,1-1s-0.4487305-1-1-1s-1,0.4487305-1,1S12.9487305,3.5,13.5,3.5z"/>
	<path fill="#303C42" d="M7.5,13C6.6728516,13,6,13.6728516,6,14.5S6.6728516,16,7.5,16S9,15.3271484,9,14.5S8.3271484,13,7.5,13z
		 M7.5,15C7.2241211,15,7,14.7758789,7,14.5S7.2241211,14,7.5,14S8,14.2241211,8,14.5S7.7758789,15,7.5,15z"/>
	<path fill="#303C42" d="M16.5,13c-0.8271484,0-1.5,0.6728516-1.5,1.5s0.6728516,1.5,1.5,1.5s1.5-0.6728516,1.5-1.5
		S17.3271484,13,16.5,13z M16.5,15c-0.2758789,0-0.5-0.2241211-0.5-0.5s0.2241211-0.5,0.5-0.5s0.5,0.2241211,0.5,0.5
		S16.7758789,15,16.5,15z"/>
	<path fill="#303C42" d="M5.5,11H11c0.2763672,0,0.5-0.2236328,0.5-0.5v-6C11.5,4.2236328,11.2763672,4,11,4H5.5
		C5.2236328,4,5,4.2236328,5,4.5v6C5,10.7763672,5.2236328,11,5.5,11z M6,5h4.5v5H6V5z"/>
	<path fill="#303C42" d="M13,11h5.5c0.2763672,0,0.5-0.2236328,0.5-0.5v-6C19,4.2236328,18.7763672,4,18.5,4H13
		c-0.2763672,0-0.5,0.2236328-0.5,0.5v6C12.5,10.7763672,12.7236328,11,13,11z M13.5,5H18v5h-4.5V5z"/>
</g>
<g>
</g>
<g>
</g>
<g>
</g>
<g>
</g>
<g>
</g>
<g>
</g>
<g>
</g>
<g>
</g>
<g>
</g>
<g>
</g>
<g>
</g>
<g>
</g>
<g>
</g>
<g>
</g>
<g>
</g>
</svg>
