<svg xmlns="http://www.w3.org/2000/svg" viewBox="0 0 64 64"><g id="HOUSE-15" data-name="HOUSE"><path d="M12.61,18.42c4.35-.08,4.35-6.76,0-6.84C8.25,11.66,8.25,18.34,12.61,18.42Zm0-5.34c2.43,0,2.43,3.82,0,3.84S10.18,13.1,12.61,13.08Z"/><path d="M11.88,10.33a.73.73,0,0,0,.73.75c1,0,.67-1.47.72-2.08a.74.74,0,0,0-.72-.75C11.6,8.23,11.93,9.72,11.88,10.33Z"/><path d="M15.81,12.45c.45.07,1.12-.92,1.42-1.16a.75.75,0,0,0,0-1.06c-.69-.75-1.48.54-1.94.94A.76.76,0,0,0,15.81,12.45Z"/><path d="M17.13,14.25a.74.74,0,0,0-.73.75c0,1,1.41.7,2,.75a.74.74,0,0,0,.73-.75C19.18,14,17.75,14.3,17.13,14.25Z"/><path d="M16.32,17.77a.72.72,0,0,0-1,0c-.72.71.51,1.52.92,2a.69.69,0,0,0,1,0C18,19.07,16.72,18.25,16.32,17.77Z"/><path d="M11.88,19.67V21a.73.73,0,1,0,1.45,0V19.67A.73.73,0,1,0,11.88,19.67Z"/><path d="M8.89,17.77c-.4.48-1.63,1.3-.91,2s1.48-.54,1.94-.94C10.59,18.17,9.57,17.07,8.89,17.77Z"/><path d="M6.79,15.75H8.08a.75.75,0,0,0,0-1.5H6.79A.75.75,0,0,0,6.79,15.75Z"/><path d="M8.89,12.23c.68.7,1.7-.4,1-1.06-.46-.4-1.24-1.69-1.94-.94S8.49,11.75,8.89,12.23Z"/><path d="M26.4,20.58a4.49,4.49,0,0,0,3.71,0,3.54,3.54,0,0,0,5.11-3.14,3.57,3.57,0,0,0-1.43-2.88,3.19,3.19,0,0,0-2.07-.69c-1.26-2.63-5.67-2.62-6.93,0-2.62-.14-4.17,2.91-3.12,5.14A3.43,3.43,0,0,0,26.4,20.58Zm-1.7-4.69c.7.12,1.46.19,1.7-.66a2,2,0,0,1,3.72,0,1,1,0,0,0,1.26.71,1.5,1.5,0,0,1,1.84,1.53,1.48,1.48,0,0,1-.9,1.38,1.35,1.35,0,0,1-1.49-.19,1,1,0,0,0-1.29-.05,2.33,2.33,0,0,1-2.56,0,1,1,0,0,0-1.27,0,1.42,1.42,0,0,1-.91.36C22.87,19.08,22.9,15.9,24.7,15.89Z"/><path d="M48.88,20.6a4.47,4.47,0,0,0,3.62,0,3.48,3.48,0,0,0,3.61-5.92,3.27,3.27,0,0,0-2-.68c-1.25-2.57-5.56-2.56-6.8,0C41.78,14.31,43.57,23,48.88,20.6ZM46.3,16.43a1.3,1.3,0,0,1,1.4-.36,1,1,0,0,0,1.21-.72,1.88,1.88,0,0,1,3.58,0A1,1,0,0,0,53,16a1,1,0,0,0,.78.08,1.45,1.45,0,0,1,1.77,1.48,1.42,1.42,0,0,1-.86,1.33,1.31,1.31,0,0,1-1.43-.18,1,1,0,0,0-1.29-.05,2.32,2.32,0,0,1-2.48,0,1,1,0,0,0-1.26,0,1.38,1.38,0,0,1-.88.34C45.92,19,45.56,17.33,46.3,16.43Z"/><path d="M38.34,12.67a3.89,3.89,0,0,0,3.1,0,3.13,3.13,0,1,0,1.45-6,3.54,3.54,0,0,0-6,0C32.05,7.08,33.66,14.67,38.34,12.67Zm-1.05-3.9a1,1,0,0,0,1.21-.72,1.47,1.47,0,0,1,2.79,0,1,1,0,0,0,1.27.7,1.08,1.08,0,0,1,1.32,1.14,1.07,1.07,0,0,1-.65,1,1,1,0,0,1-1.07-.13,1,1,0,0,0-1.29,0,1.83,1.83,0,0,1-1.95,0,1,1,0,0,0-1.26,0A1,1,0,0,1,37,11C35.38,11,35.76,8.26,37.29,8.77Z"/><path d="M63,51H57.12V47.17l1.52,1.56c.67.71,1.7-.4,1-1.06l-2.55-2.62v-.73l1.52,1.57c.67.7,1.7-.4,1-1.06L57.12,42.2v-.73L58.64,43c.67.7,1.7-.4,1-1.06l-2.55-2.63v-.73l1.52,1.57c.67.7,1.7-.4,1-1.06L57.12,36.5v-.72l1.52,1.56c.67.71,1.7-.4,1-1.06L56.9,33.44a.69.69,0,0,0-1,0l-2.77,2.84c-.67.66.36,1.77,1,1.06l1.52-1.56v.72l-2.55,2.63c-.67.66.36,1.76,1,1.06l1.52-1.57v.73L53.11,42c-.67.66.36,1.76,1,1.06l1.52-1.57v.73l-2.55,2.63c-.67.66.36,1.76,1,1.06l1.52-1.57v.73l-2.55,2.62c-.67.66.36,1.77,1,1.06l1.52-1.56V51H49.12a2.85,2.85,0,0,1-.42-.09l-2.24-.46-1.13-.23h0L45,50.16,39,48.91V44.28l1.54,1.58c.67.7,1.7-.4,1-1.06L39,42.15v-.74L40.51,43c.67.7,1.7-.4,1-1.07L39,39.29v-.75l1.54,1.59c.67.7,1.7-.4,1-1.06L39,36.42v-.74l1.54,1.58c.67.71,1.7-.4,1-1.06L39,33.56v-.75c.33.24,1.58,1.9,2.05,1.81a.76.76,0,0,0,.52-1.28l-2.78-2.87a.72.72,0,0,0-1,0L35,33.34c-.67.66.35,1.76,1,1.06l1.54-1.59v.75L35,36.2c-.67.66.35,1.77,1,1.06l1.54-1.58v.74L35,39.07c-.67.66.35,1.76,1,1.06l1.54-1.59v.75L35,41.93c-.67.66.35,1.77,1,1.07l1.54-1.59v.74L35,44.8c-.67.66.35,1.76,1,1.06l1.54-1.58v4.33l-5.93-1.23V39.05a1,1,0,0,0-.31-.73L23,30.39a.94.94,0,0,0-1.32,0c0,.16-9.41,8.57-8.6,8.66V48.2c0,1,1.08,1.06,1.84,1V51H8.34V47.17l1.52,1.56c.67.71,1.7-.4,1-1.06L8.34,45.05v-.73l1.52,1.57c.67.7,1.7-.4,1-1.06L8.34,42.2v-.73L9.86,43c.67.7,1.7-.4,1-1.06L8.34,39.35v-.73l1.52,1.57c.67.7,1.7-.4,1-1.06L8.34,36.5v-.72l1.52,1.56c.67.71,1.7-.4,1-1.06L8.12,33.44a.69.69,0,0,0-1,0L4.33,36.28c-.67.66.36,1.77,1,1.06l1.52-1.56v.72L4.33,39.13c-.67.66.36,1.76,1,1.06l1.52-1.57v.73L4.33,42c-.67.66.36,1.76,1,1.06l1.52-1.57v.73L4.33,44.83c-.67.66.36,1.76,1,1.06l1.52-1.57v.73L4.33,47.67c-.67.66.36,1.77,1,1.06l1.52-1.56V51H1a1,1,0,0,0,0,2H63A1,1,0,0,0,63,51Zm-35.22-1H16.86V49.2h11Zm1.84-2.85H15V39.49l7.32-7,7.31,7Zm.1,3.8V49.2h.77L39.23,51Z"/></g></svg>