<?xml version="1.0" encoding="UTF-8" standalone="no"?> <svg xmlns="http://www.w3.org/2000/svg" viewBox="0 0 64 64"><title>bottle-water-glass-drink-beverage-healthy</title><g id="_24-water" data-name="24-water"><path d="M56,10.4V7h1a1,1,0,0,0,1-1V1a1,1,0,0,0-1-1H43a1,1,0,0,0-1,1V6a1,1,0,0,0,1,1h1v3.4a15.379,15.379,0,0,0-8,13.548V29H28V23.944A15.379,15.379,0,0,0,20,10.4V7h1a1,1,0,0,0,1-1V1a1,1,0,0,0-1-1H7A1,1,0,0,0,6,1V6A1,1,0,0,0,7,7H8v3.4A15.379,15.379,0,0,0,0,23.944v35.9A4.16,4.16,0,0,0,4.156,64H59.844A4.16,4.16,0,0,0,64,59.844v-35.9A15.379,15.379,0,0,0,56,10.4ZM44,2H56V5H44ZM41.453,39H38a1,1,0,0,0-1,1v3a1,1,0,0,1-2,0V40a1,1,0,0,0-1-1H29a1,1,0,0,0-1,1v6a1,1,0,0,1-2,0V40a1,1,0,0,0-1-1H22.547l-.485-8H41.938ZM8,2H20V5H8Zm1.447,9.9A1,1,0,0,0,10,11V7h8v4a1,1,0,0,0,.553.895A13.4,13.4,0,0,1,26,23.944V25H22v2h4v2H21a1,1,0,0,0-1,1.061L20.483,38H2V27H18V25H2V23.944A13.4,13.4,0,0,1,9.447,11.9ZM2,59.844V40H20.6l1.334,22H4.156A2.159,2.159,0,0,1,2,59.844ZM40.059,62H23.941L22.669,41H24v5a3,3,0,0,0,6,0V41h3v2a3,3,0,0,0,6,0V41h2.331Zm19.785,0H42.062L43.4,40H62V59.844A2.159,2.159,0,0,1,59.844,62ZM62,25H58v2h4V38H43.517L44,30.061A1,1,0,0,0,43,29H38V27H54V25H38V23.944A13.4,13.4,0,0,1,45.447,11.9,1,1,0,0,0,46,11V7h8v4a1,1,0,0,0,.553.895A13.4,13.4,0,0,1,62,23.944Z"/><path d="M49.4,44.2c-2.086,1.563-4.86-.043-4.888-.059l-1.027,1.716a8.068,8.068,0,0,0,3.783,1.037A5.442,5.442,0,0,0,50.6,45.8c1.971-1.479,4.706.921,4.731.943l1.338-1.486C56.508,45.112,52.686,41.737,49.4,44.2Z"/><path d="M49.4,50.2c-2.086,1.563-4.86-.044-4.888-.059l-1.027,1.716a8.068,8.068,0,0,0,3.783,1.037A5.442,5.442,0,0,0,50.6,51.8c1.971-1.479,4.706.92,4.731.943l1.338-1.486C56.508,51.111,52.686,47.737,49.4,50.2Z"/><path d="M49.4,56.2c-2.086,1.564-4.86-.043-4.888-.059l-1.027,1.716a8.068,8.068,0,0,0,3.783,1.037A5.442,5.442,0,0,0,50.6,57.8c1.971-1.48,4.706.92,4.731.943l1.338-1.486C56.508,57.112,52.686,53.737,49.4,56.2Z"/><path d="M14.6,45.8c1.254-.939,2.8-.343,3.874.324l1.052-1.7c-2.269-1.4-4.446-1.485-6.126-.223-2.087,1.563-4.861-.043-4.888-.059L7.485,45.857a8.068,8.068,0,0,0,3.783,1.037A5.442,5.442,0,0,0,14.6,45.8Z"/><path d="M14.6,51.8c1.254-.939,2.8-.343,3.874.324l1.052-1.7c-2.269-1.4-4.446-1.484-6.126-.223-2.087,1.563-4.861-.044-4.888-.059L7.485,51.857a8.068,8.068,0,0,0,3.783,1.037A5.442,5.442,0,0,0,14.6,51.8Z"/><path d="M19.526,56.423c-2.269-1.4-4.446-1.484-6.126-.223-2.087,1.564-4.861-.043-4.888-.059L7.485,57.857a8.068,8.068,0,0,0,3.783,1.037A5.442,5.442,0,0,0,14.6,57.8c1.254-.938,2.8-.341,3.875.324a6.962,6.962,0,0,1,.9.657l1.281-1.535A8.582,8.582,0,0,0,19.526,56.423Z"/><rect x="28" y="54" width="2" height="2"/><rect x="32" y="56" width="2" height="2"/><rect x="26" y="58" width="2" height="2"/></g></svg>