<?xml version="1.0" encoding="UTF-8"?>
<!DOCTYPE svg PUBLIC "-//W3C//DTD SVG 1.1//EN" "http://www.w3.org/Graphics/SVG/1.1/DTD/svg11.dtd">
<!-- Creator: CorelDRAW X5 -->
<svg xmlns="http://www.w3.org/2000/svg" xml:space="preserve" width="6.72in" height="6.72in" style="shape-rendering:geometricPrecision; text-rendering:geometricPrecision; image-rendering:optimizeQuality; fill-rule:evenodd; clip-rule:evenodd"
viewBox="0 0 6720 6720"
 xmlns:xlink="http://www.w3.org/1999/xlink">
 <defs>
  <style type="text/css">
   <![CDATA[
    .fil1 {fill:none}
    .fil0 {fill:black;fill-rule:nonzero}
   ]]>
  </style>
 </defs>
 <g id="Layer_x0020_1">
  <metadata id="CorelCorpID_0Corel-Layer"/>
  <g id="_375186792">
   <path class="fil0" d="M1083 1635l4554 0 0 -675 -4554 0 0 675zm4634 160l-4714 0c-44,0 -80,-36 -80,-80l0 -835c0,-44 36,-80 80,-80l4714 0c44,0 80,36 80,80l0 835c0,44 -36,80 -80,80z"/>
   <path class="fil0" d="M1173 1635l4371 0c44,0 80,36 80,80l0 3519c0,44 -36,80 -80,80l-4371 0c-44,0 -80,-36 -80,-80l0 -3519c0,-44 36,-80 80,-80zm4291 160l-4211 0 0 3359 4211 0 0 -3359z"/>
   <path class="fil0" d="M1052 5154l4616 0c44,0 80,36 80,80l0 606c0,44 -36,80 -80,80l-4616 0c-44,0 -80,-36 -80,-80l0 -606c0,-44 36,-80 80,-80zm4536 160l-4456 0 0 446 4456 0 0 -446z"/>
   <path class="fil0" d="M5624 1726c-4,220 -96,419 -241,563 -147,146 -350,236 -573,236 -203,0 -389,-75 -532,-198 -145,-125 -245,-300 -274,-499l0 0c-1,-9 -1,-19 1,-28 2,-13 3,-26 4,-39 1,-17 2,-32 2,-44l80 1 -80 -1c0,-44 36,-79 80,-79l0 0 1454 0c44,0 80,36 80,80 0,3 0,6 0,8zm-354 450c101,-100 169,-231 189,-378l-1294 0c-1,6 -1,12 -2,18 25,155 105,292 219,390 115,99 264,159 428,159 180,0 343,-72 461,-189z"/>
   <path class="fil0" d="M4166 1726c-4,220 -96,419 -241,563 -147,146 -350,236 -573,236 -203,0 -389,-75 -532,-198 -145,-125 -245,-300 -274,-499l0 0c-1,-9 -1,-19 1,-28 2,-13 3,-26 4,-39 1,-17 2,-32 2,-44l80 1 -80 -1c0,-44 36,-79 80,-79l0 0 1454 0c44,0 80,36 80,80 0,3 0,6 0,8zm-354 450c101,-100 169,-231 189,-378l-1294 0c-1,6 -1,12 -2,18 25,155 105,292 219,390 115,99 264,159 428,159 180,0 343,-72 461,-189z"/>
   <path class="fil0" d="M2707 1726c-4,220 -96,419 -241,563 -147,146 -350,236 -573,236 -19,0 14,0 -9,0 -226,-2 -424,-90 -565,-233 -141,-143 -226,-342 -226,-565 0,-8 0,-2 0,0l0 0c0,-1 0,-4 0,-9l80 1 -80 -1c0,-44 36,-79 80,-79l0 0 1454 0c44,0 80,36 80,80 0,3 0,6 0,8zm-354 450c101,-100 169,-231 189,-378l-1285 0c15,151 79,283 176,382 112,114 270,184 452,186 18,0 -17,0 8,0 180,0 343,-72 461,-189zm-1260 -450c0,1 0,1 0,0l0 0z"/>
   <path class="fil0" d="M1809 3001l1031 0c44,0 80,36 80,80l0 1031c0,44 -36,80 -80,80l-1031 0c-44,0 -80,-36 -80,-80l0 -1031c0,-44 36,-80 80,-80zm951 160l-871 0 0 871 871 0 0 -871z"/>
   <path class="fil0" d="M4134 3787l949 0c44,0 80,36 80,80l0 1367c0,44 -36,80 -80,80l-949 0c-44,0 -80,-36 -80,-80l0 -1367c0,-44 36,-80 80,-80zm869 160l-789 0 0 1207 789 0 0 -1207z"/>
  </g>
 </g>
 <rect class="fil1" width="6720" height="6720"/>
</svg>
