<?xml version="1.0" encoding="utf-8"?>
<!-- Generator: Adobe Illustrator 25.2.3, SVG Export Plug-In . SVG Version: 6.00 Build 0)  -->
<svg version="1.1" xmlns="http://www.w3.org/2000/svg" xmlns:xlink="http://www.w3.org/1999/xlink" x="0px" y="0px"
	 viewBox="0 0 64 64" enable-background="new 0 0 64 64" xml:space="preserve">
<g id="_x30_1">
</g>
<g id="_x30_2">
</g>
<g id="_x30_3">
</g>
<g id="_x30_4">
</g>
<g id="_x30_5">
</g>
<g id="_x30_6">
</g>
<g id="_x30_7">
</g>
<g id="_x30_8">
</g>
<g id="_x30_9">
</g>
<g id="_x31_0">
</g>
<g id="_x31_1">
</g>
<g id="_x31_2">
</g>
<g id="_x31_3">
</g>
<g id="_x31_4">
</g>
<g id="_x31_5">
</g>
<g id="_x31_6">
</g>
<g id="_x31_7">
</g>
<g id="_x31_8">
	<path d="M40.913,6.473V0H23.088v6.474l-3.311,9.772V64h24.447V16.246L40.913,6.473z M37.931,2.981v2.247H26.069V2.981H37.931z
		 M41.242,61.019H22.758V29.267h6.46c0.823,0,1.49-0.667,1.49-1.491s-0.667-1.491-1.49-1.491h-6.46V23.95h4.075
		c0.823,0,1.491-0.667,1.491-1.491s-0.667-1.491-1.491-1.491h-4.075v-2.987h6.46c0.823,0,1.49-0.667,1.49-1.491
		s-0.667-1.491-1.49-1.491h-5.871l2.301-6.791h12.706l2.889,8.527V61.019z"/>
</g>
<g id="_x31_9">
</g>
<g id="_x32_0">
</g>
</svg>
