<?xml version="1.0" encoding="UTF-8" standalone="no"?> <svg id="icon" xmlns="http://www.w3.org/2000/svg" viewBox="0 0 512 512"><title>hotdog</title><path d="M203.552,89.737a43.6,43.6,0,0,0-39.3-17.726,5.389,5.389,0,1,0,1.025,10.729,32.806,32.806,0,0,1,29.55,13.324c22.513,31.046,59.28,65.241,100.877,93.815s86.707,50.626,123.761,60.5A32.355,32.355,0,0,1,441.4,269.891a5.389,5.389,0,1,0,10.018-3.976,43.608,43.608,0,0,0-29.174-25.954C386.326,230.393,342.43,208.9,301.805,181S225.371,119.825,203.552,89.737Z"/><path d="M454.764,344.565a5.387,5.387,0,0,0-5.074,5.687A38.631,38.631,0,0,1,431.8,385.031a38.043,38.043,0,0,1-29.614,4.858c-3.72-.908-7.534-1.887-11.354-2.9a63.284,63.284,0,0,0-2.6-14.6,67,67,0,0,0-39.567-42.824C306.4,312.617,269.493,293.4,238.987,272.441s-61.688-48.506-92.668-81.88A68.436,68.436,0,0,0,129.9,177.554a5.39,5.39,0,0,0-5.316,9.377,57.68,57.68,0,0,1,13.83,10.965c31.52,33.953,63.3,62.023,94.466,83.43s68.764,41,111.769,58.242a56.272,56.272,0,0,1,33.261,35.94,49.986,49.986,0,0,1-6.335,43.031c-11.935,17.375-34.461,25.274-56.059,19.671-70.294-18.259-141.782-69.049-142.5-69.561-.056-.039-.114-.079-.172-.117-.733-.484-73.79-48.987-116.055-108.051-12.985-18.143-13.688-42.008-1.753-59.383A48.922,48.922,0,0,1,77.527,183.23l.7-.267A5.385,5.385,0,0,0,78.447,173c-2.573-3.542-5.141-7.141-7.645-10.748A38.522,38.522,0,0,1,97.49,102.185,5.39,5.39,0,1,0,96.1,91.5a49.282,49.282,0,0,0-34.157,76.9c1.788,2.576,3.611,5.145,5.442,7.7a59.564,59.564,0,0,0-21.23,18.9c-14.5,21.1-13.743,49.94,1.871,71.761,43.1,60.233,114.669,107.988,118.8,110.721,4.037,2.88,74.29,52.547,145.976,71.167A65.987,65.987,0,0,0,329.4,450.77c20.363,0,39.647-9.512,51.061-26.128a59.591,59.591,0,0,0,10.022-26.6c3.077.8,6.141,1.584,9.143,2.317a49.511,49.511,0,0,0,11.764,1.426,49.35,49.35,0,0,0,48.119-39.4,49.366,49.366,0,0,0,.939-12.747A5.4,5.4,0,0,0,454.764,344.565Z"/><path d="M94.526,174.02a5.391,5.391,0,0,0,5.12,5.647c1.3.063,2.609.175,3.9.33a5.155,5.155,0,0,0,.653.04,5.39,5.39,0,0,0,.639-10.741c-1.545-.187-3.116-.321-4.666-.4A5.41,5.41,0,0,0,94.526,174.02Z"/><path d="M218.485,304.718l-1.95-1.34a5.39,5.39,0,1,0-6.1,8.885l1.95,1.339a5.389,5.389,0,1,0,6.1-8.884Z"/><path d="M165.139,316.293a5.39,5.39,0,0,0,1.391,7.5l1.95,1.339a5.39,5.39,0,0,0,6.1-8.885l-1.95-1.339A5.388,5.388,0,0,0,165.139,316.293Z"/><path d="M170.032,268.391l-1.95-1.339a5.389,5.389,0,1,0-6.1,8.884l1.95,1.34a5.39,5.39,0,0,0,6.1-8.885Z"/><path d="M120.784,274a5.389,5.389,0,0,0,1.391,7.494l1.95,1.339a5.39,5.39,0,0,0,6.1-8.885l-1.95-1.339A5.388,5.388,0,0,0,120.784,274Z"/><path d="M125.231,228.834l-1.95-1.338a5.39,5.39,0,1,0-6.1,8.887l1.95,1.339a5.39,5.39,0,1,0,6.1-8.888Z"/><path d="M214.036,349.883a5.39,5.39,0,0,0,1.391,7.494l1.95,1.34a5.39,5.39,0,0,0,6.1-8.885l-1.95-1.34A5.388,5.388,0,0,0,214.036,349.883Z"/><path d="M269.777,336.91l-1.95-1.34a5.389,5.389,0,1,0-6.1,8.885l1.949,1.34a5.39,5.39,0,0,0,6.1-8.885Z"/><path d="M269.428,376.11a5.389,5.389,0,0,0,1.39,7.494l1.951,1.34a5.389,5.389,0,1,0,6.1-8.885l-1.949-1.339A5.386,5.386,0,0,0,269.428,376.11Z"/><path d="M316.669,373.421a5.39,5.39,0,0,0,6.1-8.885l-1.95-1.34a5.39,5.39,0,1,0-6.1,8.885Z"/><path d="M459.553,287.22c-15.253-.159-23.418,6.095-28.843,10.252-3.948,3.027-4.65,3.565-11.086,2.1-1.724-1.253-5.939-6.154-7.369-7.818-6.551-7.617-14.7-17.1-26.891-21.448-9.858-3.519-20.106-1.572-29.159.15-5.363,1.021-12.668,2.409-15.448,1.281-.326-.27-1.459-1.381-3.875-5.382a5.39,5.39,0,1,0-9.228,5.574c3.347,5.54,5.786,8.3,8.4,9.512,5.806,2.722,14.124,1.138,22.181-.4,8.44-1.6,16.412-3.117,23.508-.585,9.5,3.392,16.62,11.671,22.342,18.326,6.04,7.023,9.26,10.3,12.369,11.115.05.014.1.027.151.038,11.373,2.656,15.088.369,20.668-3.909,4.75-3.64,10.687-8.195,22.149-8.027a6.1,6.1,0,0,1-.076,12.193h-.078c-7.245-.063-10.5,2.383-14.579,5.512-7.541,5.782-14.6,9.9-30.866,6.1-7.525-1.754-13.09-8.223-18.982-15.075-5.283-6.14-10.746-12.489-17.2-14.791-3.7-1.32-9.189-.43-17.147,1.083-9.494,1.806-20.25,3.852-29.62-.547-7.735-3.63-12.36-11.823-16.836-19.748-3.745-6.63-7.619-13.486-12.736-16.456-3.732-2.157-9.538-2.246-18.014-2.127-9.836.127-19.992.271-28.1-5.294s-11.623-15.108-15.025-24.335c-2.923-7.93-5.089-13.331-8.449-16.044-4.6-3.708-12.393-4.864-19.927-5.982-9-1.332-18.3-2.709-24.472-8.627-7.468-7.169-9.42-17.945-11.141-27.459-1.439-7.96-2.575-13.4-5.137-16.385-4.462-5.2-12.336-8.016-19.983-10.75-8.506-3.04-16.538-5.912-20.881-12.312-9.378-13.815-8.066-21.884-5.376-31,1.458-4.935,2.609-8.831-.085-15.589a6.1,6.1,0,1,1,11.325-4.517c4.255,10.671,2.149,17.812.454,23.556-1.988,6.74-2.795,11.025,3.77,20.7a5.39,5.39,0,0,0,8.919-6.053c-4.021-5.927-3.8-6.68-2.348-11.6,1.934-6.554,4.855-16.457-.781-30.592a16.877,16.877,0,0,0-31.353,12.5c1.312,3.29,1.045,4.193-.239,8.542-3.133,10.612-5.189,22.45,6.794,40.1,6.319,9.312,16.866,13.082,26.2,16.42,5.955,2.128,12.7,4.539,15.342,7.54,1.008,1.613,2.2,8.18,2.771,11.361,1.812,10.01,4.294,23.719,14.283,33.308,8.649,8.3,20.686,10.083,30.355,11.514,5.243.778,12.425,1.843,14.71,3.683,1.414,1.317,3.832,7.881,5.133,11.409,3.612,9.793,8.105,21.98,19.036,29.491s23.91,7.33,34.372,7.186c3.753-.052,10.743-.147,12.437.678,2.577,1.494,6.147,7.815,8.754,12.429,4.808,8.514,10.791,19.111,21.64,24.2,12.532,5.882,26.222,3.278,36.223,1.378,3.166-.6,9.721-1.848,11.59-1.487,3.75,1.393,8.429,6.833,12.564,11.638,6.445,7.494,13.751,15.989,24.705,18.541a60.546,60.546,0,0,0,13.752,1.736c12.081,0,19.533-4.732,26.121-9.782,3.475-2.665,4.291-3.291,7.533-3.291.183,0,.374,0,.566,0a16.877,16.877,0,0,0,.209-33.753Z"/><path d="M305.436,238.349a5.394,5.394,0,0,0,1.964,7.367,27.948,27.948,0,0,1,4.822,3.545,5.389,5.389,0,0,0,7.24-7.985,39.136,39.136,0,0,0-6.658-4.89A5.4,5.4,0,0,0,305.436,238.349Z"/><path d="M160.748,129.838c6.666,2.563,14.2,6.022,19.537,12.232,4.912,5.717,6.358,13.7,7.89,22.162,1.458,8.062,2.966,16.4,7.582,20.832,3.116,3,9.08,4.072,17.821,5.367,9.152,1.357,18.616,2.76,25.808,8.561,6.216,5.022,9.132,12.93,12.221,21.312,2.868,7.777,5.576,15.124,10.488,18.5,4.032,2.768,10.026,3.194,16.631,3.194,1.443,0,2.916-.021,4.4-.041l1.748-.022a5.391,5.391,0,0,0-.06-10.781h-.061l-1.778.023c-5.057.072-12.691.175-14.778-1.258s-4.727-8.6-6.48-13.352c-3.3-8.938-7.03-19.069-15.561-25.961-9.478-7.645-21.409-9.414-31-10.837-3.349-.5-10.261-1.519-12.033-2.578-2.042-2.159-3.368-9.494-4.343-14.885-1.64-9.056-3.5-19.321-10.321-27.259-6.937-8.073-16.387-12.4-23.844-15.269a5.39,5.39,0,0,0-3.868,10.062Z"/></svg>