<?xml version="1.0" encoding="UTF-8" standalone="no"?> <svg id="_1_-_10" data-name="1 - 10" xmlns="http://www.w3.org/2000/svg" viewBox="0 0 48 48"><title>Mineral Water</title><g id="Mineral_Water" data-name="Mineral Water"><path d="M40,7a2.1,2.1,0,0,0-.041-.275l0-.014C39.508,3.246,31.18,2,24,2S8.492,3.246,8.043,6.711l0,.014A2.1,2.1,0,0,0,8,7c0,.023.009.043.01.066s-.006.027,0,.042l3.745,34.453C11.832,44.836,18.384,46,24,46s12.168-1.164,12.249-4.439L39.994,7.108c0-.015-.005-.028,0-.042S40,7.023,40,7Zm-2.968,8.854C33.717,14.17,26.623,14,24,14s-9.715.168-13.032,1.849l-.654-6.013C13.375,11.39,18.972,12,24,12s10.625-.61,13.686-2.164ZM36.744,18c-.664.746-4.81,2-12.744,2s-12.08-1.254-12.744-2c.664-.746,4.81-2,12.744-2S36.08,17.254,36.744,18ZM24,4c9.783,0,13.951,2.122,14,2.985l-.006.049C37.89,7.908,33.716,10,24,10S10.11,7.908,10.01,7.034L10,6.985C10.049,6.122,14.217,4,24,4ZM34.256,41.392a.977.977,0,0,0-.006.108C34.25,42.211,31.2,44,24,44s-10.25-1.789-10.25-2.5a.977.977,0,0,0-.006-.108L11.46,20.377C14.942,21.846,21.5,22,24,22s9.059-.155,12.54-1.626Z"/></g></svg>