<?xml version="1.0" encoding="UTF-8" standalone="no"?> <svg width="64" height="64" viewBox="0 0 64 64" fill="none" xmlns="http://www.w3.org/2000/svg">
<path d="M42.52 18.93L39.23 15.17C37.9529 13.7295 37.1713 11.9175 37 10C37.2652 10 37.5196 9.89464 37.7071 9.70711C37.8946 9.51957 38 9.26522 38 9V3C38 2.73478 37.8946 2.48043 37.7071 2.29289C37.5196 2.10536 37.2652 2 37 2H27C26.7348 2 26.4804 2.10536 26.2929 2.29289C26.1054 2.48043 26 2.73478 26 3V9C26 9.26522 26.1054 9.51957 26.2929 9.70711C26.4804 9.89464 26.7348 10 27 10C26.8393 11.9174 26.0682 13.7329 24.8 15.18L21.51 18.94C20.7363 19.8375 20.2457 20.944 20.1 22.12V22.12C20.0618 22.365 20.0384 22.6122 20.03 22.86V51C20.03 51.2652 20.1354 51.5196 20.3229 51.7071C20.5104 51.8946 20.7648 52 21.03 52C21.2952 52 21.5496 51.8946 21.7371 51.7071C21.9246 51.5196 22.03 51.2652 22.03 51V48H39C39.2652 48 39.5196 47.8946 39.7071 47.7071C39.8946 47.5196 40 47.2652 40 47C40 46.7348 39.8946 46.4804 39.7071 46.2929C39.5196 46.1054 39.2652 46 39 46H22V22.88C22 22.88 22 22.82 22 22.8C23.401 21.8329 25.0966 21.3874 26.792 21.5408C28.4874 21.6943 30.0754 22.4371 31.28 23.64C32.6568 25.0206 34.4339 25.9318 36.3585 26.2442C38.2831 26.5566 40.2572 26.2542 42 25.38V30H25C24.7348 30 24.4804 30.1054 24.2929 30.2929C24.1054 30.4804 24 30.7348 24 31C24 31.2652 24.1054 31.5196 24.2929 31.7071C24.4804 31.8946 24.7348 32 25 32H42V59C42 59.2652 41.8946 59.5196 41.7071 59.7071C41.5196 59.8946 41.2652 60 41 60H23C22.7348 60 22.4804 59.8946 22.2929 59.7071C22.1054 59.5196 22 59.2652 22 59V55C22 54.7348 21.8946 54.4804 21.7071 54.2929C21.5196 54.1054 21.2652 54 21 54C20.7348 54 20.4804 54.1054 20.2929 54.2929C20.1054 54.4804 20 54.7348 20 55V59C20 59.7956 20.3161 60.5587 20.8787 61.1213C21.4413 61.6839 22.2044 62 23 62H41C41.7956 62 42.5587 61.6839 43.1213 61.1213C43.6839 60.5587 44 59.7956 44 59V22.88C44.001 21.4276 43.4752 20.0241 42.52 18.93ZM28 4H36V8H28V4ZM32.71 22.22C31.4877 21.0093 29.9539 20.1609 28.2787 19.769C26.6035 19.3771 24.8525 19.4571 23.22 20L26.28 16.51C27.8769 14.6975 28.8327 12.4098 29 10H35C35.1632 12.3992 36.108 14.6789 37.69 16.49L41 20.24C41.6431 20.9692 41.9986 21.9077 42 22.88V23.06C40.5988 24.0317 38.9007 24.4799 37.2025 24.3263C35.5043 24.1728 33.9142 23.4272 32.71 22.22V22.22Z" fill="#231F20"/>
<path d="M27.05 43.66C27.1902 43.7279 27.3443 43.7622 27.5 43.76C27.6847 43.7594 27.8656 43.7078 28.0227 43.6107C28.1798 43.5136 28.3069 43.3749 28.39 43.21L30.14 39.71L31.5 37L33.61 41.21C33.6939 41.3738 33.8214 41.5113 33.9784 41.6073C34.1355 41.7033 34.316 41.754 34.5 41.754C34.6841 41.754 34.8645 41.7033 35.0216 41.6073C35.1786 41.5113 35.3061 41.3738 35.39 41.21L36.5 39L38.61 43.21C38.6931 43.3749 38.8202 43.5136 38.9773 43.6107C39.1344 43.7078 39.3153 43.7594 39.5 43.76C39.6557 43.7622 39.8098 43.7279 39.95 43.66C40.1855 43.5401 40.364 43.3319 40.4465 43.0808C40.5289 42.8297 40.5086 42.5562 40.39 42.32L38.07 37.66C37.9299 37.3618 37.7079 37.1094 37.43 36.9324C37.152 36.7554 36.8295 36.6609 36.5 36.66C36.1717 36.6604 35.8503 36.7548 35.5738 36.932C35.2974 37.1092 35.0775 37.3618 34.94 37.66L34.5 38.53L33.29 36.11C33.1241 35.7772 32.8688 35.4972 32.5526 35.3015C32.2364 35.1058 31.8719 35.0021 31.5 35.0021C31.1281 35.0021 30.7637 35.1058 30.4475 35.3015C30.1313 35.4972 29.8759 35.7772 29.71 36.11L29.25 37.03L29.07 36.66C28.9299 36.3618 28.7079 36.1094 28.43 35.9324C28.152 35.7554 27.8295 35.6609 27.5 35.66C27.1717 35.6604 26.8503 35.7548 26.5738 35.932C26.2974 36.1092 26.0775 36.3618 25.94 36.66L23.61 41.32C23.5354 41.4381 23.4864 41.5706 23.4661 41.7088C23.4459 41.847 23.4548 41.988 23.4923 42.1225C23.5299 42.2571 23.5952 42.3823 23.684 42.4901C23.7729 42.5979 23.8834 42.6858 24.0084 42.7483C24.1333 42.8108 24.27 42.8464 24.4095 42.8528C24.5491 42.8593 24.6884 42.8364 24.8186 42.7857C24.9488 42.7349 25.0669 42.6575 25.1653 42.5584C25.2637 42.4592 25.3403 42.3405 25.39 42.21L27.5 38L28.13 39.26L26.61 42.32C26.4914 42.5562 26.4711 42.8297 26.5535 43.0808C26.636 43.3319 26.8145 43.5401 27.05 43.66Z" fill="#231F20"/>
<path d="M27 52C27.2652 52 27.5196 51.8946 27.7071 51.7071C27.8946 51.5196 28 51.2652 28 51C28 50.7348 27.8946 50.4804 27.7071 50.2929C27.5196 50.1054 27.2652 50 27 50C26.4067 50 25.8266 50.1759 25.3333 50.5056C24.8399 50.8352 24.4554 51.3038 24.2284 51.852C24.0013 52.4001 23.9419 53.0033 24.0576 53.5853C24.1734 54.1672 24.4591 54.7018 24.8787 55.1213C25.2982 55.5409 25.8328 55.8266 26.4147 55.9424C26.9967 56.0581 27.5999 55.9987 28.1481 55.7716C28.6962 55.5446 29.1648 55.1601 29.4944 54.6667C29.8241 54.1734 30 53.5933 30 53C30 52.7348 29.8946 52.4804 29.7071 52.2929C29.5196 52.1054 29.2652 52 29 52C28.7348 52 28.4804 52.1054 28.2929 52.2929C28.1054 52.4804 28 52.7348 28 53C28 53.1978 27.9414 53.3911 27.8315 53.5556C27.7216 53.72 27.5654 53.8482 27.3827 53.9239C27.2 53.9996 26.9989 54.0194 26.8049 53.9808C26.6109 53.9422 26.4327 53.847 26.2929 53.7071C26.153 53.5673 26.0578 53.3891 26.0192 53.1951C25.9806 53.0011 26.0004 52.8 26.0761 52.6173C26.1518 52.4346 26.28 52.2784 26.4444 52.1685C26.6089 52.0586 26.8022 52 27 52Z" fill="#231F20"/>
<path d="M36 53C36.5523 53 37 52.5523 37 52C37 51.4477 36.5523 51 36 51C35.4477 51 35 51.4477 35 52C35 52.5523 35.4477 53 36 53Z" fill="#231F20"/>
<path d="M33 57C33.5523 57 34 56.5523 34 56C34 55.4477 33.5523 55 33 55C32.4477 55 32 55.4477 32 56C32 56.5523 32.4477 57 33 57Z" fill="#231F20"/>
<path d="M26 27C26.5523 27 27 26.5523 27 26C27 25.4477 26.5523 25 26 25C25.4477 25 25 25.4477 25 26C25 26.5523 25.4477 27 26 27Z" fill="#231F20"/>
</svg>
