<?xml version="1.0" encoding="UTF-8" standalone="no"?> <svg height="480pt" viewBox="-32 0 480 480.00039" width="480pt" xmlns="http://www.w3.org/2000/svg"><path d="m2.34375 202.34375c-1.5 1.5-2.34375 3.535156-2.34375 5.65625v216c.0351562 30.914062 25.085938 55.964844 56 56h128c30.914062-.035156 55.964844-25.085938 56-56v-216c0-2.121094-.84375-4.15625-2.34375-5.65625l-77.65625-77.65625v-60.6875h16c4.417969 0 8-3.582031 8-8v-48c0-4.417969-3.582031-8-8-8h-112c-4.417969 0-8 3.582031-8 8v48c0 4.417969 3.582031 8 8 8h16v60.6875zm69.65625-186.34375h24v8c0 4.417969 3.582031 8 8 8s8-3.582031 8-8v-8h16v8c0 4.417969 3.582031 8 8 8s8-3.582031 8-8v-8h24v32h-96zm72 48v64c0 2.121094.84375 4.15625 2.34375 5.65625l77.65625 77.65625v212.6875c-.027344 22.082031-17.917969 39.972656-40 40h-128c-22.082031-.027344-39.972656-17.917969-40-40v-212.6875l77.65625-77.65625c1.5-1.5 2.34375-3.535156 2.34375-5.65625v-64zm0 0"/><path d="m40 296v128c0 4.417969 3.582031 8 8 8h144c4.417969 0 8-3.582031 8-8v-128c0-44.183594-35.816406-80-80-80s-80 35.816406-80 80zm80-64c35.328125.039062 63.960938 28.671875 64 64v120h-128v-120c.039062-35.328125 28.671875-63.960938 64-64zm0 0"/><path d="m45.65625 229.65625 16-16c3.03125-3.140625 2.988281-8.128906-.097656-11.214844-3.085938-3.085937-8.074219-3.128906-11.214844-.097656l-16 16c-2.078125 2.007812-2.914062 4.984375-2.179688 7.78125.730469 2.796875 2.914063 4.980469 5.710938 5.710938 2.796875.734374 5.773438-.101563 7.78125-2.179688zm0 0"/><path d="m90.34375 162.34375-16 16c-2.078125 2.007812-2.914062 4.984375-2.179688 7.78125.730469 2.796875 2.914063 4.980469 5.710938 5.710938 2.796875.734374 5.773438-.101563 7.78125-2.179688l16-16c3.03125-3.140625 2.988281-8.128906-.097656-11.214844-3.085938-3.085937-8.074219-3.128906-11.214844-.097656zm0 0"/><path d="m80 304h80c4.417969 0 8-3.582031 8-8s-3.582031-8-8-8h-80c-4.417969 0-8 3.582031-8 8s3.582031 8 8 8zm0 0"/><path d="m80 336h80c4.417969 0 8-3.582031 8-8s-3.582031-8-8-8h-80c-4.417969 0-8 3.582031-8 8s3.582031 8 8 8zm0 0"/><path d="m80 368h80c4.417969 0 8-3.582031 8-8s-3.582031-8-8-8h-80c-4.417969 0-8 3.582031-8 8s3.582031 8 8 8zm0 0"/><path d="m80 400h80c4.417969 0 8-3.582031 8-8s-3.582031-8-8-8h-80c-4.417969 0-8 3.582031-8 8s3.582031 8 8 8zm0 0"/><path d="m104 272h32c4.417969 0 8-3.582031 8-8s-3.582031-8-8-8h-32c-4.417969 0-8 3.582031-8 8s3.582031 8 8 8zm0 0"/><path d="m413.902344 290.609375c-1.511719-1.660156-3.65625-2.609375-5.902344-2.609375h-144c-2.253906-.007812-4.40625.933594-5.925781 2.589844-1.523438 1.660156-2.277344 3.886718-2.074219 6.128906l14.679688 161.457031c1.070312 12.398438 11.484374 21.894531 23.929687 21.824219h82.78125c12.433594.054688 22.828125-9.4375 23.898437-21.824219l14.710938-161.457031c.191406-2.238281-.570312-4.457031-2.097656-6.109375zm-138.230469 45.390625h120.65625l-8 88h-104.65625zm123.566406-32-1.453125 16h-123.570312l-1.414063-16zm-21.847656 160h-82.78125c-4.132813-.003906-7.585937-3.15625-7.960937-7.273438l-1.519532-16.726562h101.742188l-1.519532 16.71875c-.371093 4.121094-3.824218 7.277344-7.960937 7.28125zm0 0"/><path d="m368 352h-24c-4.417969 0-8 3.582031-8 8s3.582031 8 8 8h24c4.417969 0 8-3.582031 8-8s-3.582031-8-8-8zm0 0"/><path d="m312 392h-8c-4.417969 0-8 3.582031-8 8s3.582031 8 8 8h8c4.417969 0 8-3.582031 8-8s-3.582031-8-8-8zm0 0"/></svg>