<?xml version="1.0" encoding="UTF-8" standalone="no"?> <svg width="64" height="64" viewBox="0 0 64 64" fill="none" xmlns="http://www.w3.org/2000/svg">
<path d="M62.0001 20.8198C61.9974 19.4442 61.4498 18.1256 60.4771 17.1529C59.5043 16.1801 58.1858 15.6325 56.8101 15.6298H55.0001V7.52984C54.9974 6.15418 54.4498 4.83562 53.4771 3.86288C52.5043 2.89014 51.1858 2.34249 49.8101 2.33984H10.6501C8.35504 2.34249 6.15491 3.25605 4.53301 4.87983C2.9111 6.50361 2.00009 8.7048 2.00009 10.9998V54.7698C1.99614 55.4544 2.12739 56.133 2.38632 56.7667C2.64525 57.4004 3.02676 57.9768 3.50896 58.4627C3.99116 58.9486 4.56455 59.3345 5.19625 59.5983C5.82795 59.8621 6.50552 59.9985 7.19009 59.9998H56.8101C57.4947 59.9985 58.1722 59.8621 58.8039 59.5983C59.4356 59.3345 60.009 58.9486 60.4912 58.4627C60.9734 57.9768 61.3549 57.4004 61.6139 56.7667C61.8728 56.133 62.004 55.4544 62.0001 54.7698C62.0001 44.8298 62.0001 30.8498 62.0001 20.8198ZM47.0001 43.1498C46.1143 43.1498 45.2647 42.798 44.6384 42.1716C44.012 41.5452 43.6601 40.6957 43.6601 39.8098C43.6601 38.924 44.012 38.0745 44.6384 37.4481C45.2647 36.8217 46.1143 36.4698 47.0001 36.4698H58.0001V43.1498H47.0001ZM10.6501 6.33984H49.8101C50.1257 6.33984 50.4284 6.46522 50.6515 6.68839C50.8747 6.91156 51.0001 7.21424 51.0001 7.52984V15.6298C50.6901 15.6298 11.1801 15.5698 10.9001 15.6298C4.58009 15.6598 4.34009 6.59984 10.6501 6.33984Z" fill="black"/>
</svg>
