<?xml version="1.0" encoding="utf-8"?>
<!-- Generator: Adobe Illustrator 25.4.1, SVG Export Plug-In . SVG Version: 6.00 Build 0)  -->
<svg version="1.1" id="Outline" xmlns="http://www.w3.org/2000/svg" xmlns:xlink="http://www.w3.org/1999/xlink" x="0px" y="0px"
	 viewBox="0 0 512 512" enable-background="new 0 0 512 512" xml:space="preserve">
<path d="M388.115,1.373c-3.875-2.121-8.742-0.695-10.859,3.168l-59.15,107.848H96.271c-3.062,0-5.852,1.746-7.195,4.496
	c-1.336,2.75-0.992,6.023,0.898,8.434l123.594,157.914c10.219,13.086,16.508,28.625,18.18,44.938
	c0.008,0.047,0.016,0.094,0.016,0.141c0.344,2.809,0.508,5.816,0.508,9.199v104.719c0,10.957-5.758,21.355-15.039,27.137
	l-45.203,28.238c-3.023,1.891-4.43,5.559-3.445,8.988c0.984,3.434,4.117,5.797,7.688,5.797h160c3.57,0,6.703-2.363,7.688-5.797
	c0.984-3.43-0.422-7.098-3.445-8.988l-45.211-28.242c-9.273-5.777-15.031-16.176-15.031-27.133V337.51
	c0-3.383,0.164-6.391,0.523-9.34c1.672-16.312,7.961-31.852,18.172-44.93l123.602-157.922c1.891-2.41,2.234-5.684,0.898-8.434
	c-1.344-2.75-4.133-4.496-7.195-4.496H336.35l54.937-100.152C393.412,8.361,391.99,3.498,388.115,1.373z M293.334,173.736
	c-5.58-2.833-9.646-7.65-11.649-13.348h45.113c-3.313,9.292-12.11,16-22.526,16C300.474,176.389,296.795,175.498,293.334,173.736z
	 M281.745,144.389c3.313-9.292,12.11-16,22.526-16c4.281,0,8.453,1.133,12.141,3.32c4.917,2.853,8.427,7.438,10.302,12.68H281.745z
	 M286.826,482.936l21.539,13.453H204.177l21.531-13.449c13.914-8.676,22.562-24.277,22.562-40.711V337.51
	c0-0.479-0.031-0.906-0.037-1.375c2.705,0.158,5.377,0.253,8.037,0.253c2.659,0,5.332-0.095,8.037-0.253
	c-0.006,0.469-0.037,0.895-0.037,1.375v104.719C264.271,458.662,272.92,474.264,286.826,482.936z M286.365,273.389
	c-10.717,13.724-17.752,29.754-20.584,46.589c-6.433,0.501-12.591,0.501-19.024,0c-2.852-16.898-9.885-32.894-20.587-46.597
	l-88.438-112.992h46.54c4.422,0,8-3.582,8-8s-3.578-8-8-8h-59.063l-12.523-16h159.791c-3.538,4.674-6.184,10.052-7.396,16h-56.809
	c-4.422,0-8,3.582-8,8s3.578,8,8,8h56.89c1.186,5.865,3.631,11.309,7.167,16.006c-0.02,0-0.037-0.006-0.057-0.006
	c-4.422,0-8,3.582-8,8s3.578,8,8,8c13.234,0,24,10.766,24,24s-10.766,24-24,24c-4.57,0-8.844-1.23-12.703-3.652
	c-7.078-4.445-11.297-12.051-11.297-20.348c0-6.887,2.961-13.449,8.125-18c3.312-2.926,3.625-7.98,0.703-11.293
	c-2.937-3.316-7.977-3.617-11.297-0.707c-8.602,7.59-13.531,18.523-13.531,30c0,11.259,4.714,21.696,12.786,29.195l-3.809,6.969
	c-2.117,3.875-0.688,8.738,3.188,10.855c1.219,0.668,2.531,0.98,3.828,0.98c2.828,0,5.578-1.504,7.031-4.164l3.443-6.299
	c4.325,1.563,8.877,2.463,13.534,2.463c22.055,0,40-17.945,40-40c0-9.045-3.132-17.304-8.215-24.013
	c0.072,0,0.143,0.013,0.215,0.013c19.315,0,35.474-13.766,39.191-32h31.348L286.365,273.389z M387.334,144.389h-43.961
	c-1.197-5.822-3.605-11.3-7.125-16h63.609L387.334,144.389z"/>
<path d="M96.271,40.389h-8c-4.422,0-8,3.582-8,8s3.578,8,8,8h8c4.422,0,8-3.582,8-8S100.693,40.389,96.271,40.389z"/>
<path d="M112.271,16.389c-4.422,0-8,3.582-8,8v8c0,4.418,3.578,8,8,8s8-3.582,8-8v-8C120.271,19.971,116.693,16.389,112.271,16.389z
	"/>
<path d="M128.271,56.389h8c4.422,0,8-3.582,8-8s-3.578-8-8-8h-8c-4.422,0-8,3.582-8,8S123.849,56.389,128.271,56.389z"/>
<path d="M104.271,72.389c0,4.418,3.578,8,8,8s8-3.582,8-8v-8c0-4.418-3.578-8-8-8s-8,3.582-8,8V72.389z"/>
<path d="M424.271,56.389h-8c-4.422,0-8,3.582-8,8s3.578,8,8,8h8c4.422,0,8-3.582,8-8S428.693,56.389,424.271,56.389z"/>
<path d="M440.271,32.389c-4.422,0-8,3.582-8,8v8c0,4.418,3.578,8,8,8s8-3.582,8-8v-8C448.271,35.971,444.693,32.389,440.271,32.389z
	"/>
<path d="M464.271,56.389h-8c-4.422,0-8,3.582-8,8s3.578,8,8,8h8c4.422,0,8-3.582,8-8S468.693,56.389,464.271,56.389z"/>
<path d="M432.271,88.389c0,4.418,3.578,8,8,8s8-3.582,8-8v-8c0-4.418-3.578-8-8-8s-8,3.582-8,8V88.389z"/>
<path d="M232.271,16.389c-13.234,0-24,10.766-24,24s10.766,24,24,24s24-10.766,24-24S245.506,16.389,232.271,16.389z
	 M232.271,48.389c-4.414,0-8-3.59-8-8s3.586-8,8-8s8,3.59,8,8S236.685,48.389,232.271,48.389z"/>
</svg>
