<?xml version="1.0" encoding="UTF-8" standalone="no"?> <svg id="icon" xmlns="http://www.w3.org/2000/svg" viewBox="0 0 512 512"><title>pizza</title><path d="M191.613,273.191a67.19,67.19,0,0,0-14.243-93.95,67.876,67.876,0,0,0-10.624-6.417,5.39,5.39,0,0,0-4.7,9.7,57.053,57.053,0,0,1,8.933,5.394,56.409,56.409,0,0,1-40.935,101.328,5.39,5.39,0,0,0-1.422,10.686,67.232,67.232,0,0,0,62.992-26.743Z"/><path d="M135.648,263.457a5.39,5.39,0,0,0-.655,10.76q1.271.077,2.534.077a40.956,40.956,0,0,0,24.282-73.927c-1.091-.8-2.235-1.562-3.4-2.252a5.389,5.389,0,1,0-5.506,9.266c.857.51,1.7,1.069,2.508,1.664a30.177,30.177,0,0,1-19.766,54.412Z"/><path d="M157.233,355.1a5.39,5.39,0,0,0-7.4,1.829,55.784,55.784,0,0,0-5.184,46.37,5.39,5.39,0,1,0,10.238-3.377A45.022,45.022,0,0,1,159.06,362.5,5.387,5.387,0,0,0,157.233,355.1Z"/><path d="M227.1,351.546a5.389,5.389,0,1,0,7.013-8.185c-1.048-.9-2.146-1.772-3.261-2.593A55.52,55.52,0,0,0,189.2,330.526a5.391,5.391,0,0,0,1.639,10.656,44.789,44.789,0,0,1,33.617,8.265C225.36,350.113,226.249,350.82,227.1,351.546Z"/><path d="M171.379,390.052c.075,0,.148,0,.224,0a5.39,5.39,0,0,0,5.381-5.17A20.739,20.739,0,0,1,210,369.062a5.39,5.39,0,1,0,6.393-8.679,31.521,31.521,0,0,0-50.184,24.064A5.39,5.39,0,0,0,171.379,390.052Z"/><path d="M67.9,470.849a22.694,22.694,0,0,0,26.074.741L360.546,297.677a5.39,5.39,0,1,0-5.891-9.028L88.084,462.561a12.1,12.1,0,0,1-18.25-13.445l80.914-284.4a5.39,5.39,0,0,0-10.369-2.949l-80.914,284.4A22.7,22.7,0,0,0,67.9,470.849Z"/><path d="M316.493,288.433a53.373,53.373,0,1,0-43,21.674A52.972,52.972,0,0,0,316.493,288.433Zm-77.179-56.862a42.542,42.542,0,1,1,9.016,59.485A42.505,42.505,0,0,1,239.314,231.571Z"/><path d="M296.246,273.518a28.26,28.26,0,0,0-1.744-35.571,5.389,5.389,0,1,0-8,7.22,17.4,17.4,0,1,1-26.942,1.321,17.251,17.251,0,0,1,8.989-6.34,5.39,5.39,0,0,0-3.1-10.325,28.18,28.18,0,0,0,8.056,55.163,28.557,28.557,0,0,0,4.282-.324A27.989,27.989,0,0,0,296.246,273.518Z"/><path d="M126.822,141.7a28.948,28.948,0,0,0,40.426-6.128,17.347,17.347,0,0,1,18.59-6.5q1.14.306,2.269.621a296.428,296.428,0,0,1,170,125.241A283.407,283.407,0,0,1,372.4,279.692,32.858,32.858,0,0,0,401.643,297.7a32.281,32.281,0,0,0,15.731-4.114l18.391-10.223a34.291,34.291,0,0,0,12.994-47.226c-18.577-31.9-57.765-91.333-111.489-130.912S215.173,45.828,179.2,37.54a34.3,34.3,0,0,0-41.254,26.406l-1.776,8.481a51.144,51.144,0,0,1-8.943,19.987l-6.531,8.864A28.946,28.946,0,0,0,126.822,141.7Zm2.552-34.031,6.53-8.864a61.854,61.854,0,0,0,10.815-24.171l1.776-8.481a23.513,23.513,0,0,1,28.283-18.111c35.162,8.1,101.939,27.429,154.1,65.857s90.41,96.476,108.566,127.658a23.512,23.512,0,0,1-8.915,32.38l-18.39,10.223a21.536,21.536,0,0,1-16.9,1.788,21.934,21.934,0,0,1-13.235-11.145,294.505,294.505,0,0,0-14.839-25.7A307.191,307.191,0,0,0,190.993,119.31q-1.176-.327-2.354-.645a28.568,28.568,0,0,0-7.433-.989,28.047,28.047,0,0,0-22.638,11.506,18.131,18.131,0,0,1-29.194-21.51Z"/><path d="M195.138,171.509a5.389,5.389,0,1,0,6.392-8.678l-10.671-7.861a5.389,5.389,0,1,0-6.392,8.678Z"/><path d="M227.139,203.317a5.379,5.379,0,0,0,4.343-2.194l8.8-11.944a5.39,5.39,0,0,0-8.678-6.394l-8.8,11.944a5.391,5.391,0,0,0,4.336,8.588Z"/><path d="M201.2,292.5l4.361,12.974a5.39,5.39,0,0,0,10.218-3.433l-4.359-12.974A5.391,5.391,0,0,0,201.2,292.5Z"/><path d="M256.336,320.507,243.3,323.385a5.389,5.389,0,1,0,2.323,10.525l13.038-2.877a5.39,5.39,0,1,0-2.323-10.526Z"/><path d="M168.475,347.54a5.393,5.393,0,0,0,4.73-7.965L163.8,322.262a5.391,5.391,0,0,0-9.473,5.148l9.409,17.313A5.393,5.393,0,0,0,168.475,347.54Z"/><path d="M116.96,391.2a5.39,5.39,0,0,0-5.051,5.709l1.1,17.966a5.391,5.391,0,0,0,5.375,5.061c.11,0,.221,0,.334-.01a5.39,5.39,0,0,0,5.051-5.709l-1.1-17.966A5.4,5.4,0,0,0,116.96,391.2Z"/><path d="M132.567,341.65a5.391,5.391,0,0,0-7.568-.9L112.9,350.265a5.39,5.39,0,0,0,6.666,8.471l12.1-9.516A5.39,5.39,0,0,0,132.567,341.65Z"/></svg>