<?xml version="1.0" encoding="UTF-8" standalone="no"?> <svg width="512" height="512" viewBox="0 0 512 512" fill="none" xmlns="http://www.w3.org/2000/svg">
<path d="M486.979 463.301L455.572 382.541C450.193 368.57 441.318 356.214 429.798 346.654C418.277 337.095 404.496 330.653 389.772 327.943L312 313.361V282.168C329.928 270.454 342.989 252.625 348.754 232H364C373.47 232 382.759 229.415 390.867 224.522C398.975 219.629 405.592 212.616 410.006 204.238C414.42 195.86 416.462 186.436 415.912 176.982C415.363 167.528 412.242 158.405 406.887 150.595C411.741 143.163 414.759 134.683 415.691 125.855C416.623 117.027 415.442 108.105 412.247 99.8228C409.051 91.541 403.933 84.1377 397.313 78.2236C390.693 72.3096 382.762 68.0544 374.173 65.809C371.838 56.8828 367.332 48.6724 361.056 41.9081C354.781 35.1438 346.931 30.0355 338.205 27.0375C329.479 24.0396 320.147 23.245 311.04 24.7244C301.933 26.2038 293.332 29.9113 286.004 35.5172C274.568 23.6732 259.003 16.6995 242.552 16.0498C226.102 15.4002 210.035 21.1247 197.701 32.0301C174.777 32.6556 153 42.1951 136.997 58.6216C120.994 75.0481 112.026 97.0671 112 120V125.791C103.853 135.019 98.5441 146.403 96.7119 158.576C94.8796 170.749 96.6018 183.192 101.671 194.41C106.741 205.627 114.942 215.142 125.29 221.81C135.637 228.479 147.69 232.017 160 232H163.246C169.011 252.625 182.072 270.454 200 282.168V313.361L122.228 327.943C107.504 330.653 93.7231 337.095 82.2024 346.654C70.6816 356.214 61.8071 368.57 56.4282 382.541L25.0215 463.301C23.6069 466.938 23.1007 470.865 23.5466 474.742C23.9925 478.619 25.3772 482.329 27.5806 485.55C29.784 488.772 32.7397 491.407 36.1915 493.228C39.6433 495.048 43.487 496 47.3897 496H464.61C468.513 496 472.357 495.048 475.808 493.228C479.26 491.407 482.216 488.772 484.419 485.551C486.623 482.33 488.007 478.62 488.453 474.743C488.899 470.866 488.393 466.939 486.979 463.301ZM337.515 334.423L350.398 379.513L301.186 401.385C307.497 377.952 311.074 353.866 311.846 329.61L337.515 334.423ZM160 136V208.425C160 210.969 160.124 213.494 160.341 216H160C148.47 215.998 137.325 211.846 128.604 204.304C119.883 196.761 114.168 186.332 112.503 174.923C110.838 163.513 113.335 151.886 119.538 142.166C125.74 132.446 135.233 125.283 146.282 121.986L141.718 106.651C137.076 108.038 132.61 109.955 128.409 112.366C130.016 97.537 136.179 83.5708 146.05 72.3887C155.92 61.2066 169.014 53.3582 183.528 49.9234C178.576 59.1743 175.99 69.5069 176 80.0001H192C191.996 70.3997 194.871 61.0187 200.256 53.0703C205.64 45.1219 213.285 38.9715 222.202 35.4145C231.119 31.8576 240.898 31.0576 250.275 33.1181C259.652 35.1786 268.194 40.0047 274.799 46.9725C274.303 47.6501 273.805 48.3255 273.338 49.0289L286.662 57.8873C291.413 50.7269 298.343 45.2867 306.427 42.3718C314.51 39.457 323.317 39.2226 331.545 41.7032C339.772 44.1839 346.982 49.2478 352.106 56.1452C357.231 63.0427 359.999 71.407 360 80.0001V96.0001H376V83.3132C383.358 86.5286 389.579 91.8824 393.854 98.6792C398.129 105.476 400.262 113.402 399.974 121.426C399.687 129.451 396.993 137.203 392.242 143.677C387.491 150.15 380.903 155.045 373.334 157.726L378.666 172.812C384.899 170.608 390.69 167.314 395.769 163.083C398.693 168.568 400.146 174.716 399.988 180.929C399.83 187.142 398.066 193.208 394.867 198.536C391.668 203.865 387.143 208.274 381.734 211.334C376.325 214.395 370.215 216.002 364 216H351.659C351.876 213.494 352 210.969 352 208.425V136C351.993 129.637 349.462 123.537 344.963 119.037C340.463 114.538 334.363 112.007 328 112H304.985C298.093 112.008 291.36 109.934 285.668 106.048C279.976 102.163 275.59 96.6478 273.087 90.2266L285.657 77.6568L274.343 66.3433L249.775 90.9117C243.105 97.6185 235.17 102.936 226.431 106.556C217.692 110.175 208.322 112.026 198.863 112H184C177.637 112.007 171.537 114.538 167.037 119.037C162.538 123.537 160.007 129.637 160 136ZM176 208.425V136C176.002 133.879 176.846 131.846 178.346 130.346C179.846 128.846 181.879 128.002 184 128H198.863C210.424 128.032 221.876 125.77 232.556 121.346C243.237 116.922 252.934 110.423 261.087 102.227C265.44 110.048 271.806 116.562 279.525 121.094C287.243 125.626 296.034 128.01 304.985 128H328C330.121 128.002 332.154 128.846 333.654 130.346C335.154 131.846 335.998 133.879 336 136V208.425C335.981 222.246 331.994 235.77 324.512 247.39C317.029 259.009 306.367 268.236 293.793 273.972L269.242 285.132C265.083 287.023 260.568 288.001 256 288.001C251.432 288.001 246.917 287.023 242.758 285.132L218.207 273.972C205.633 268.236 194.971 259.009 187.489 247.39C180.006 235.77 176.019 222.246 176 208.425ZM296 290.544V315.718L295.384 316.129C283.73 323.928 270.023 328.092 256 328.091C241.977 328.091 228.27 323.928 216.616 316.129L216 315.718V290.544L236.137 299.697C242.375 302.534 249.148 304.001 256 304.001C262.852 304.001 269.625 302.534 275.863 299.697L296 290.544ZM174.485 334.423L200.154 329.61C200.926 353.866 204.503 377.952 210.814 401.385L161.602 379.513L174.485 334.423ZM131.099 480L151.589 418.53L136.411 413.47L114.234 480H47.3897C46.0888 480 44.8075 479.683 43.6569 479.076C42.5064 478.469 41.5211 477.59 40.7867 476.517C40.0522 475.443 39.5907 474.206 39.442 472.914C39.2934 471.622 39.4621 470.313 39.9336 469.1L71.3403 388.34C75.7414 376.91 83.0023 366.8 92.4282 358.979C101.854 351.157 113.13 345.886 125.176 343.669L156.903 337.72L142.398 388.487L216.999 421.643C221.487 434.764 226.847 447.571 233.044 459.977L243.056 480H131.099ZM256 470.112L247.355 452.821C228.976 415.943 218.426 375.66 216.368 334.507C228.628 340.812 242.214 344.1 256 344.1C269.786 344.1 283.373 340.811 295.632 334.507C293.574 375.66 283.024 415.943 264.646 452.821L256 470.112ZM471.213 476.517C470.486 477.597 469.502 478.481 468.35 479.089C467.198 479.696 465.913 480.01 464.61 480H397.766L375.589 413.47L360.411 418.53L380.901 480H268.944L278.956 459.977C285.153 447.571 290.513 434.764 295.001 421.643L369.602 388.487L355.097 337.72L386.824 343.669C398.87 345.886 410.146 351.157 419.572 358.978C428.998 366.8 436.259 376.909 440.66 388.339L472.066 469.1C472.547 470.311 472.721 471.622 472.572 472.916C472.423 474.21 471.957 475.447 471.213 476.517Z" fill="black"/>
<path d="M232 152H216V168H232V152Z" fill="black"/>
<path d="M296 152H280V168H296V152Z" fill="black"/>
<path d="M225.6 211.2L201.6 243.2L214.4 252.8L238.4 220.8L225.6 211.2Z" fill="black"/>
<path d="M286.4 211.2L273.6 220.8L297.6 252.8L310.4 243.2L286.4 211.2Z" fill="black"/>
<path d="M256 264.944L275.578 255.155L268.422 240.845L256 247.056L243.578 240.845L236.422 255.155L256 264.944Z" fill="black"/>
<path d="M264 168H248V200H264V168Z" fill="black"/>
</svg>
