<?xml version="1.0" encoding="UTF-8" standalone="no"?> <svg width="64" height="64" viewBox="0 0 64 64" fill="none" xmlns="http://www.w3.org/2000/svg">
<path d="M58.4401 43.61C57.8919 43.0582 57.1983 42.6733 56.4401 42.5L57.8801 41.05C58.6684 40.2606 59.1112 39.1906 59.1112 38.075C59.1112 36.9594 58.6684 35.8894 57.8801 35.1C57.33 34.5527 56.6368 34.1715 55.8801 34L57.1401 32.74C57.9357 31.951 58.3853 30.8782 58.39 29.7577C58.3947 28.6371 57.9541 27.5606 57.1651 26.765C56.376 25.9693 55.3033 25.5197 54.1827 25.515C53.0622 25.5103 51.9857 25.951 51.1901 26.74L41.6901 36.24L27.6901 22.24L37.1901 12.74C37.9329 11.9418 38.3371 10.8865 38.3175 9.7963C38.2979 8.70608 37.8561 7.66599 37.0851 6.89497C36.3141 6.12395 35.274 5.68215 34.1838 5.66257C33.0935 5.64299 32.0383 6.04716 31.2401 6.79L30.0001 8.14C29.8285 7.38324 29.4473 6.69009 28.9001 6.14C28.1107 5.35165 27.0407 4.90884 25.9251 4.90884C24.8094 4.90884 23.7394 5.35165 22.9501 6.14L21.5001 7.57C21.3268 6.81173 20.9418 6.1182 20.3901 5.57C19.9983 5.17211 19.5313 4.85611 19.0163 4.64043C18.5012 4.42474 17.9484 4.31366 17.3901 4.31366C16.8317 4.31366 16.2789 4.42474 15.7638 4.64043C15.2488 4.85611 14.7818 5.17211 14.3901 5.57L12.6901 7.31L12.1701 6.79C11.4062 6.02618 10.3703 5.59707 9.29005 5.59707C8.20984 5.59707 7.17388 6.02618 6.41005 6.79C5.64623 7.55382 5.21712 8.58979 5.21712 9.67C5.21712 10.7502 5.64623 11.7862 6.41005 12.55L6.93005 13.07L5.56005 14.44C5.16216 14.8317 4.84617 15.2987 4.63048 15.8138C4.41479 16.3288 4.30371 16.8816 4.30371 17.44C4.30371 17.9984 4.41479 18.5512 4.63048 19.0662C4.84617 19.5813 5.16216 20.0483 5.56005 20.44C6.10825 20.9918 6.80178 21.3767 7.56005 21.55L6.13005 23C5.3417 23.7894 4.89889 24.8594 4.89889 25.975C4.89889 27.0906 5.3417 28.1606 6.13005 28.95C6.68015 29.4973 7.37329 29.8785 8.13005 30.05L6.88005 31.26C6.48937 31.654 6.18011 32.121 5.96993 32.6345C5.75975 33.148 5.65277 33.6978 5.65509 34.2527C5.65978 35.3732 6.1094 36.446 6.90505 37.235C7.7007 38.024 8.7772 38.4647 9.89773 38.46C10.4526 38.4576 11.0015 38.3461 11.5132 38.1316C12.0249 37.9171 12.4894 37.604 12.8801 37.21L22.0001 28.09L36.0001 42.09L26.8801 51.22C26.091 52.0157 25.6504 53.0921 25.6551 54.2127C25.6598 55.3332 26.1094 56.406 26.9051 57.195C27.7007 57.984 28.7772 58.4247 29.8977 58.42C31.0183 58.4153 32.091 57.9656 32.8801 57.17L34.0001 55.86C34.1716 56.6168 34.5528 57.3099 35.1 57.86C35.8894 58.6484 36.9594 59.0912 38.0751 59.0912C39.1907 59.0912 40.2607 58.6484 41.0501 57.86L42.5001 56.42C42.6733 57.1783 43.0583 57.8718 43.6101 58.42C44.0018 58.8179 44.4688 59.1339 44.9838 59.3496C45.4989 59.5653 46.0517 59.6763 46.6101 59.6763C47.1684 59.6763 47.7212 59.5653 48.2363 59.3496C48.7513 59.1339 49.2183 58.8179 49.6101 58.42L50.9801 57.05L51.5001 57.57C52.2639 58.3338 53.2998 58.7629 54.3801 58.7629C55.4603 58.7629 56.4962 58.3338 57.2601 57.57C58.0239 56.8062 58.453 55.7702 58.453 54.69C58.453 53.6098 58.0239 52.5738 57.2601 51.81L56.7401 51.29L58.4901 49.54C59.2657 48.7449 59.6957 47.6754 59.6863 46.5647C59.677 45.454 59.229 44.3919 58.4401 43.61V43.61ZM7.83005 11.13C7.63655 10.9393 7.48289 10.712 7.37801 10.4613C7.27313 10.2107 7.21911 9.9417 7.21911 9.67C7.21911 9.3983 7.27313 9.12931 7.37801 8.87867C7.48289 8.62802 7.63655 8.40073 7.83005 8.21C8.22168 7.8312 8.7452 7.61944 9.29005 7.61944C9.8349 7.61944 10.3584 7.8312 10.7501 8.21L11.2701 8.73L8.35005 11.65L7.83005 11.13ZM7.00005 19C6.58967 18.5845 6.35955 18.024 6.35955 17.44C6.35955 16.856 6.58967 16.2955 7.00005 15.88L15.8601 7C16.0558 6.7657 16.2981 6.57452 16.5714 6.43851C16.8448 6.3025 17.1434 6.22462 17.4484 6.20977C17.7534 6.19492 18.0581 6.24343 18.3434 6.35223C18.6287 6.46104 18.8883 6.62779 19.106 6.84195C19.3236 7.05612 19.4945 7.31306 19.6079 7.59657C19.7213 7.88008 19.7746 8.18401 19.7647 8.48919C19.7547 8.79436 19.6817 9.09417 19.5501 9.36969C19.4184 9.64521 19.2312 9.89047 19.0001 10.09L10.0901 19C9.67712 19.4037 9.12256 19.6298 8.54505 19.6298C7.96755 19.6298 7.41298 19.4037 7.00005 19V19ZM7.57005 27.5C7.15725 27.0858 6.92546 26.5248 6.92546 25.94C6.92546 25.3552 7.15725 24.7942 7.57005 24.38L24.3601 7.54C24.5601 7.31488 24.8041 7.13303 25.077 7.00561C25.3499 6.87819 25.6459 6.8079 25.9469 6.79903C26.248 6.79017 26.5477 6.84293 26.8276 6.95408C27.1075 7.06523 27.3617 7.23241 27.5747 7.44537C27.7876 7.65833 27.9548 7.91257 28.066 8.19248C28.1771 8.47239 28.2299 8.77207 28.221 9.0731C28.2122 9.37414 28.1419 9.6702 28.0144 9.94308C27.887 10.216 27.7052 10.4599 27.4801 10.66L10.6601 27.48C10.2458 27.8928 9.68486 28.1246 9.10005 28.1246C8.51525 28.1246 7.95429 27.8928 7.54005 27.48L7.57005 27.5ZM11.4501 35.82C11.0358 36.2328 10.4749 36.4646 9.89005 36.4646C9.30525 36.4646 8.74429 36.2328 8.33005 35.82C8.12445 35.6156 7.96129 35.3725 7.84996 35.1048C7.73862 34.837 7.68131 34.5499 7.68131 34.26C7.68131 33.97 7.73862 33.683 7.84996 33.4152C7.96129 33.1475 8.12445 32.9044 8.33005 32.7L32.6801 8.3C32.8845 8.0944 33.1276 7.93124 33.3953 7.81991C33.663 7.70857 33.9501 7.65126 34.2401 7.65126C34.53 7.65126 34.8171 7.70857 35.0848 7.81991C35.3525 7.93124 35.5956 8.0944 35.8001 8.3C36.2129 8.71423 36.4446 9.2752 36.4446 9.86C36.4446 10.4448 36.2129 11.0058 35.8001 11.42L11.4501 35.82ZM23.4501 26.7L26.3701 23.77L40.3701 37.77L37.4501 40.69L23.4501 26.7ZM31.4501 55.7C31.0309 56.1033 30.4718 56.3286 29.8901 56.3286C29.3083 56.3286 28.7492 56.1033 28.3301 55.7C27.9172 55.2858 27.6855 54.7248 27.6855 54.14C27.6855 53.5552 27.9172 52.9942 28.3301 52.58L52.5801 28.2C52.8891 27.892 53.2824 27.6824 53.7104 27.5976C54.1384 27.5127 54.5819 27.5565 54.9851 27.7233C55.3882 27.8901 55.733 28.1726 55.9759 28.535C56.2188 28.8975 56.349 29.3237 56.3501 29.76C56.3516 30.0503 56.2948 30.3379 56.1832 30.6059C56.0715 30.8738 55.9072 31.1167 55.7001 31.32L31.4501 55.7ZM39.7701 56.46C39.57 56.6851 39.326 56.867 39.0531 56.9944C38.7803 57.1218 38.4842 57.1921 38.1832 57.201C37.8821 57.2098 37.5824 57.1571 37.3025 57.0459C37.0226 56.9348 36.7684 56.7676 36.5554 56.5546C36.3425 56.3417 36.1753 56.0874 36.0641 55.8075C35.953 55.5276 35.9002 55.2279 35.9091 54.9269C35.9179 54.6259 35.9882 54.3298 36.1157 54.0569C36.2431 53.784 36.4249 53.5401 36.6501 53.34L53.3401 36.52C53.5401 36.2949 53.7841 36.113 54.057 35.9856C54.3299 35.8582 54.6259 35.7879 54.9269 35.779C55.228 35.7702 55.5277 35.8229 55.8076 35.9341C56.0875 36.0452 56.3417 36.2124 56.5547 36.4254C56.7676 36.6383 56.9348 36.8926 57.046 37.1725C57.1571 37.4524 57.2099 37.7521 57.201 38.0531C57.1922 38.3541 57.1219 38.6502 56.9944 38.9231C56.867 39.196 56.6852 39.4399 56.4601 39.64L39.7701 56.46ZM55.9201 53.25C56.1136 53.4407 56.2672 53.668 56.3721 53.9187C56.477 54.1693 56.531 54.4383 56.531 54.71C56.531 54.9817 56.477 55.2507 56.3721 55.5013C56.2672 55.752 56.1136 55.9793 55.9201 56.17C55.5284 56.5488 55.0049 56.7606 54.4601 56.7606C53.9152 56.7606 53.3917 56.5488 53.0001 56.17L52.4801 55.65L55.4001 52.73L55.9201 53.25ZM57.0001 48.14L48.1401 57C47.7175 57.4046 47.1551 57.6305 46.5701 57.6305C45.985 57.6305 45.4226 57.4046 45.0001 57C44.5873 56.5858 44.3555 56.0248 44.3555 55.44C44.3555 54.8552 44.5873 54.2942 45.0001 53.88L53.9101 45C54.1134 44.7963 54.355 44.6348 54.6211 44.525C54.8871 44.4152 55.1722 44.3591 55.4601 44.36C55.8967 44.363 56.3227 44.4954 56.6842 44.7403C57.0458 44.9852 57.3266 45.3317 57.4914 45.7361C57.6562 46.1405 57.6974 46.5847 57.61 47.0125C57.5225 47.4403 57.3103 47.8327 57.0001 48.14Z" fill="black"/>
</svg>
