<?xml version="1.0" encoding="UTF-8"?>
<!DOCTYPE svg PUBLIC "-//W3C//DTD SVG 1.1//EN" "http://www.w3.org/Graphics/SVG/1.1/DTD/svg11.dtd">
<!-- Creator: CorelDRAW 2018 (64-Bit) -->
<svg xmlns="http://www.w3.org/2000/svg" xml:space="preserve" width="0.283079in" height="0.182575in" version="1.1" style="shape-rendering:geometricPrecision; text-rendering:geometricPrecision; image-rendering:optimizeQuality; fill-rule:evenodd; clip-rule:evenodd"
viewBox="0 0 283.08 182.57"
 xmlns:xlink="http://www.w3.org/1999/xlink">
 <defs>
  <style type="text/css">
   <![CDATA[
    .fil0 {fill:black}
   ]]>
  </style>
 </defs>
 <g id="Layer_x0020_1">
  <metadata id="CorelCorpID_0Corel-Layer"/>
  <path class="fil0" d="M128.56 127.7c3.14,0 5.69,2.54 5.69,5.68 0,2.34 -1.41,4.35 -3.43,5.22l0.87 -4.64c0.78,-4.09 -5.47,-5.27 -6.25,-1.17l-0.87 4.63c-1.04,-1.03 -1.69,-2.46 -1.69,-4.04 0,-3.14 2.55,-5.68 5.68,-5.68zm105.27 -57.33c0.04,2.36 0.07,4.64 0.1,6.85 27.45,1.85 49.15,24.69 49.15,52.61 0,29.13 -23.61,52.74 -52.74,52.74 -29.12,0 -52.74,-23.61 -52.74,-52.74 0,-18.63 9.65,-35 24.23,-44.38l-5 -11.38 -55.09 50.59c1.76,2.57 2.8,5.68 2.8,9.01 0,8.76 -7.06,15.87 -15.81,15.95l1.46 -7.72c3.87,-0.75 6.78,-4.15 6.78,-8.23 0,-4.63 -3.75,-8.39 -8.38,-8.39 -4.63,0 -8.39,3.75 -8.39,8.39 0,2.92 1.49,5.49 3.76,6.99l-1.52 8.06 -22.39 2.57c-8.34,17.93 -26.52,30.35 -47.59,30.35 -28.98,0 -52.47,-23.49 -52.47,-52.47 0,-17.19 8.27,-32.45 21.05,-42.02 -4.84,-7.25 -7.54,-12.36 -7.36,-16.13 0.44,-9.38 15.17,-8.9 52.35,-7.16l1.02 0.31 17.91 10.87 9.09 -13.09c-1.37,-3.35 -2.71,-6.68 -4.01,-9.94l0.94 -0.37 -6.26 -15.53c-7.02,0.81 -13.72,1.56 -18.83,-0.59 -6.39,-4.42 -6.19,-15 0.8,-14.37 4.56,0.44 49.57,3.03 35.17,14.37 -4.78,-0.7 -9.94,-0.23 -15.01,0.34l6.06 15.01 1.14 -0.45c1.03,2.59 2.09,5.22 3.17,7.88l87.94 -10.76 -0.59 -1.34 -0.02 -0.05 -1.04 0.55c-1.81,0.95 -3.24,-1.78 -1.44,-2.74l1.71 -0.9 -7.09 -13.46c-0.49,-0.92 -0.2,-2.04 0.61,-2.64l13.48 -10.56 0 -7.98 -13.54 -0.74 -0.15 -4.16 15.86 0.86c1.09,0.06 1.96,0.96 1.96,2.07l0 10.91c0.02,0.63 -0.26,1.26 -0.8,1.68l-12.97 10.15 6.3 11.94 0 0 1.71 -0.9c0.39,-0.21 0.77,-0.24 1.09,-0.15 1.01,-0.89 2.22,-1.68 3.47,-2.32 1.41,-0.72 2.9,-1.26 4.24,-1.56l-0.48 -1.08 -1.36 0c-2.73,0 -2.73,-4.16 0,-4.16l67.61 0c2.73,0 2.73,4.16 0,4.16l-1.36 0 -15.77 35.24 -12.78 0zm0.13 12.29c-0,4.96 -0.07,9.68 -0.24,14.38 -0.3,8.39 -0.91,16.75 -1.93,26.46 2.89,0.66 5.05,3.24 5.05,6.33 0,3.58 -2.91,6.49 -6.49,6.49 -3.58,0 -6.49,-2.91 -6.49,-6.49 0,-0.99 0.22,-1.93 0.62,-2.78 -9.78,-12.56 -15.63,-19.76 -20.07,-35.77l-0.35 -0.79c-12.68,8.49 -21.02,22.94 -21.02,39.34 0,26.13 21.19,47.31 47.31,47.31 26.13,0 47.31,-21.19 47.31,-47.31 0,-24.91 -19.26,-45.33 -43.7,-47.18zm-4.24 40.71c1.03,-9.75 1.63,-18.08 1.93,-26.41 0.17,-4.72 0.24,-9.44 0.24,-14.42 -0.52,-0.02 -1.03,-0.03 -1.55,-0.03 -7.49,0 -14.57,1.74 -20.87,4.84l0.69 1.56c6.99,15.96 8.29,20.31 19.33,34.48l0.23 -0.03zm2.15 -46.25c-0.02,-2.18 -0.06,-4.43 -0.1,-6.75l-18.5 0 -14.42 -32.22c-1.26,0.22 -2.75,0.74 -4.17,1.46 -1.2,0.61 -2.35,1.37 -3.25,2.22 -0.05,0.44 -0.3,0.87 -0.82,1.15l-0.56 0.29c0.09,0.13 0.16,0.28 0.22,0.43l17.01 38.7c6.96,-3.39 14.79,-5.3 23.05,-5.3 0.51,0 1.02,0 1.52,0.02zm-23.64 -28.59l5.93 0 -1.84 -12.31 -9.6 0 5.51 12.31zm10.3 0l8.03 0 -0.4 -12.31 -9.47 0 1.84 12.31zm12.35 0l8.59 0 1.85 -12.31 -10.85 0 0.41 12.31zm12.97 0l7.81 0 5.51 -12.31 -11.47 0 -1.85 12.31zm5.88 4.33l-6.53 0 -1.98 13.18 2.62 0 5.9 -13.18zm-10.91 0l-7.8 0 0.43 13.18 5.39 0 1.98 -13.18zm-12.12 0l-7.52 0 1.96 13.18 5.99 0 -0.43 -13.18zm-11.9 0l-4.64 0 5.9 13.18 0.71 0 -1.97 -13.18zm-146.93 72.84l-4.92 0c0.4,1.19 0.61,2.45 0.61,3.77 0,5.9 -4.33,10.8 -9.99,11.66 1.09,3.93 2.36,7.41 4.08,11.11 1.01,0.09 1.87,0.7 2.33,1.55l34.78 -3.98c3.04,-6.23 4.76,-13.23 4.76,-20.63 0,-1.15 -0.04,-2.3 -0.13,-3.44l-31.52 0 0 -0.04zm-11.48 0l-1.23 0c1.03,0.93 1.68,2.27 1.68,3.77 0,2.8 -2.27,5.07 -5.07,5.07 -2.8,0 -5.07,-2.27 -5.07,-5.07 0,-1.27 0.46,-2.42 1.23,-3.31l-0.51 -0.77c-1,1.07 -1.62,2.5 -1.62,4.08 0,3.3 2.67,5.96 5.97,5.96 3.29,0 5.96,-2.67 5.96,-5.96 0,-1.43 -0.51,-2.74 -1.35,-3.77zm5.63 -2.07l6.01 0c0.56,-3.28 2.44,-5.76 3.79,-5.77l26.31 -0.08c-2.78,-11.16 -9.55,-20.75 -18.7,-27.16l-20.47 29.49c1.24,0.96 2.29,2.15 3.07,3.52zm63.64 -16.52c-2.63,-0.7 -1.57,-4.71 1.07,-4.01 3.95,1.06 7.84,2.1 11.8,3.16 2.63,0.7 1.57,4.71 -1.07,4.01l-3.96 -1.06 -0.17 9.22c1.42,0.44 2.76,1.08 3.98,1.88l56.89 -52.24 -6.4 -14.57 -88.11 10.78c3.54,8.53 7.3,17.23 11.1,25.63 4.54,10.04 9.12,19.58 13.44,27.82l4.43 -0 0.54 0.01 0.18 -9.63 -3.72 -1zm46.12 -104.96c-0.04,-1.15 0.86,-2.11 2,-2.15 1.14,-0.04 2.11,0.86 2.15,2 0.09,2.65 0.18,5.26 0.28,7.92 0.04,1.15 -0.86,2.11 -2,2.15 -1.15,0.04 -2.11,-0.86 -2.15,-2l-0.05 -1.33c-5.22,0.68 -10.02,0.78 -15.65,-1 0.07,1.65 -0.09,2.12 -0.7,3.68 -0.41,1.06 -1.61,1.59 -2.68,1.18 -3.98,-0.73 -4.34,-10.75 1.05,-10.47 8,1.08 12.08,1.18 17.81,1.49l-0.05 -1.47zm-45.26 130.85c0.5,-2.68 4.57,-1.93 4.07,0.76l-4.33 22.99c-0.5,2.67 -4.57,1.92 -4.07,-0.76l4.33 -22.99zm-74.06 -56.29c9.63,0 18.66,2.6 26.41,7.13l3.64 -5.24 -17.21 -10.44c-33.71,-1.58 -47.07,-2.06 -47.31,3.07 -0.13,2.69 2.28,7.07 6.59,13.5 8.07,-5.07 17.64,-8.02 27.88,-8.02zm30.05 9.46c10.57,7.4 18.28,18.59 21.17,31.59l15.68 -0.04c-4.07,-7.86 -8.32,-16.75 -12.52,-26.05 -3.68,-8.13 -7.34,-16.6 -10.82,-24.97l-13.51 19.46zm22.3 39.57c0.07,1.14 0.12,2.29 0.12,3.44 0,7.05 -1.4,13.78 -3.92,19.91l18.73 -2.14c-4.29,-2.86 -7.11,-7.74 -7.11,-13.28 0,-8.72 -5.57,-7.95 -5.68,-7.94l-2.14 0zm-52.35 -43.62c8.48,0 16.45,2.25 23.32,6.18l-20.71 29.84c-1.04,-0.31 -2.15,-0.47 -3.29,-0.47 -1.35,0 -2.65,0.23 -3.86,0.65 -5.62,-8.4 -10.72,-15.6 -15.05,-21.72 -1.9,-2.68 -3.64,-5.14 -5.22,-7.4 7.2,-4.48 15.7,-7.07 24.81,-7.07zm41.15 69.91c-8.04,14.44 -23.45,24.21 -41.15,24.21 -25.98,0 -47.06,-21.07 -47.06,-47.06 0,-15.33 7.34,-28.95 18.7,-37.55 1.59,2.3 3.35,4.77 5.24,7.45 4.25,6 9.25,13.06 14.82,21.37 -2.56,2.17 -4.18,5.4 -4.18,9.01 0,6.41 5.11,11.63 11.48,11.79 1.13,4.09 2.39,7.69 4.17,11.54 -0.72,0.54 -1.19,1.39 -1.19,2.36 0,1.62 1.32,2.94 2.94,2.94 1.39,0 2.55,-0.96 2.86,-2.26l33.36 -3.81z"/>
 </g>
</svg>
