<?xml version="1.0" encoding="UTF-8" standalone="no"?> <svg width="512" height="512" viewBox="0 0 512 512" fill="none" xmlns="http://www.w3.org/2000/svg">
<path fill-rule="evenodd" clip-rule="evenodd" d="M40 48C31.1634 48 24 55.1634 24 64V368V440C24 453.255 34.7452 464 48 464H202C210.759 464 217.889 456.958 217.999 448.2L218.201 432H249.431L277.157 459.384C280.151 462.341 284.191 464 288.4 464H464C477.255 464 488 453.255 488 440V396V368V296.958C488 256.651 458.015 222.64 418.026 217.588L317.011 204.827C309.806 203.917 304.118 198.27 303.157 191.072L299.006 160H392C400.837 160 408 152.837 408 144C408 135.163 400.837 128 392 128H326.309L370.538 83.247C376.75 76.9619 376.69 66.8315 370.405 60.6199C364.12 54.4084 353.99 54.468 347.778 60.753L293.134 116.044L285.899 61.8815C284.838 53.9343 278.058 48 270.04 48H40ZM456 368V296.958C456 272.774 438.009 252.367 414.016 249.336L313 236.575C292.979 234.046 276.861 219.32 272.303 200H216C207.163 200 200 192.837 200 184C200 175.163 207.163 168 216 168H267.79L264.584 144H216C207.163 144 200 136.837 200 128C200 119.163 207.163 112 216 112H260.31L256.035 80H56V232H64C132.006 232 187.624 285.034 191.754 352H280.641C289.983 352 298.858 356.082 304.937 363.175L319.359 380H456V368ZM64 264H56V352H159.671C155.606 302.724 114.325 264 64 264ZM56 384H176H280.641L299.852 406.413C302.892 409.959 307.329 412 312 412H456V432H294.969L267.243 404.616C264.249 401.659 260.209 400 256 400H202.4C193.641 400 186.511 407.042 186.401 415.8L186.199 432H56V384Z" fill="black"/>
</svg>
