<?xml version="1.0" encoding="UTF-8" standalone="no"?> <svg xmlns="http://www.w3.org/2000/svg" viewBox="0 0 512 512"><title>camping</title><g id="camping"><path d="M494.31,331.83a6.75,6.75,0,0,0-9.45,1.37L465,359.79,390.24,226.5a6.78,6.78,0,0,0-3.27-2.92L196.23,143.27l17.22-28.4a6.75,6.75,0,0,0-11.54-7L187,132.45l-12-24.09a6.75,6.75,0,0,0-12.09,6l15.8,31.73-1.54,2.53L134.53,218,47,360.14,26.91,333.2a6.75,6.75,0,1,0-10.81,8.08l26.07,34.91h0a5.92,5.92,0,0,0,.75.83h0a5.34,5.34,0,0,0,.44.39,4.6,4.6,0,0,0,.45.32,2.2,2.2,0,0,0,.25.17h0a6.77,6.77,0,0,0,1.84.77h0l.38.08a6.87,6.87,0,0,0,1.28.14H464.3a5.89,5.89,0,0,0,1-.1h0l.52-.1h0a6.77,6.77,0,0,0,3.71-2.44h0l.05-.06,26.07-34.91A6.75,6.75,0,0,0,494.31,331.83ZM269.06,365.4c-63.82-48-81.07-131.61-81.24-132.46a6.75,6.75,0,0,0-13.19-.23C157.86,304.25,98.37,356.29,87.39,365.4H59.65L186,160.13,293.35,365.4Zm48.9,0,18-24.12a6.75,6.75,0,1,0-10.81-8.08l-19.65,26.31L201.13,160l178.46,75.14L452.68,365.4Z"/><path d="M182.08,393.88H90.34a6.75,6.75,0,0,0,0,13.5h91.74a6.75,6.75,0,1,0,0-13.5Z"/><path d="M225.28,393.88H210.43a6.75,6.75,0,1,0,0,13.5h14.85a6.75,6.75,0,0,0,0-13.5Z"/><path d="M307.63,393.88H252.28a6.75,6.75,0,1,0,0,13.5h55.35a6.75,6.75,0,0,0,0-13.5Z"/><path d="M288.68,164.63l13.72,5.7a6.75,6.75,0,0,0,5.18-12.47l-13.72-5.7a6.75,6.75,0,0,0-5.18,12.47Z"/><path d="M327.33,180.68l51.12,21.24a6.75,6.75,0,0,0,5.18-12.47l-51.12-21.23a6.75,6.75,0,1,0-5.18,12.46Z"/></g></svg>