<?xml version="1.0" encoding="UTF-8" standalone="no"?> <svg  viewBox="0 -74 512 512"  xmlns="http://www.w3.org/2000/svg"><path d="m354.070312 309.277344c-2.628906 0-5.210937 1.070312-7.070312 2.933594-1.859375 1.859374-2.929688 4.4375-2.929688 7.066406 0 2.632812 1.070313 5.210937 2.929688 7.070312 1.859375 1.863282 4.441406 2.929688 7.070312 2.929688 2.628907 0 5.210938-1.066406 7.070313-2.929688 1.871094-1.859375 2.929687-4.4375 2.929687-7.070312 0-2.628906-1.058593-5.207032-2.929687-7.066406-1.859375-1.863282-4.429687-2.933594-7.070313-2.933594zm0 0"/><path d="m424.578125 205.929688-54.949219-80.839844c-1.863281-2.738282-4.957031-4.378906-8.269531-4.378906h-147.269531c-3.914063 0-7.472656 2.289062-9.097656 5.851562l-37.949219 83.253906-23.027344 22.808594c-1.46875-4.910156-3.726563-9.523438-6.6875-13.644531 6.121094-9.667969 9.421875-20.929688 9.421875-32.472657 0-18.199218-8.105469-35.070312-21.558594-46.429687 19.117188-14.566406 30.808594-37.46875 30.808594-62.078125 0-43.007812-34.992188-78-78-78s-78 34.992188-78 78c0 28.710938 15.976562 54.8125 40.402344 68.320312-9.679688 10.929688-15.152344 25.085938-15.152344 40.1875 0 21.527344 11.269531 41.117188 29.328125 52.007813-1.0625 6.554687-.675781 13.265625 1.167969 19.785156 4.09375 14.46875 15.105468 25.875 28.910156 30.804688-.101562 1.132812-.15625 2.277343-.15625 3.425781 0 20.265625 16.484375 36.75 36.75 36.75h56.75c4.550781 19.753906 22.273438 34.535156 43.390625 34.535156 21.121094 0 38.839844-14.777344 43.390625-34.535156h49.292969c5.523437 0 10-4.476562 10-10s-4.476563-10-10-10h-49.292969c-4.550781-19.757812-22.269531-34.539062-43.390625-34.539062-21.117187 0-38.835937 14.78125-43.390625 34.539062h-20v-31.804688h5.765625c16.695313 0 30.273437-13.582031 30.273437-30.273437v-21.53125h223.546876c3.886718 0 7.699218.300781 11.425781.878906v17.84375c0 15.949219 12.972656 28.921875 28.921875 28.921875h29.066406c3.21875 8.316406 5 17.335938 5 26.769532v9.195312h-20c-4.550781-19.757812-22.273438-34.539062-43.390625-34.539062-24.558594 0-44.539063 19.980468-44.539063 44.539062s19.980469 44.535156 44.539063 44.535156c21.117187 0 38.835937-14.777344 43.390625-34.535156h30c5.523438 0 10-4.476562 10-10v-19.195312c0-49.707032-38.613281-90.566407-87.421875-94.15625zm-203.1875 88.8125c13.527344 0 24.535156 11.007812 24.535156 24.539062s-11.003906 24.535156-24.535156 24.535156-24.539063-11.003906-24.539063-24.535156 11.007813-24.539062 24.539063-24.539062zm207.21875 49.074218c-13.527344 0-24.535156-11.003906-24.535156-24.535156s11.003906-24.539062 24.535156-24.539062 24.539063 11.007812 24.539063 24.539062-11.007813 24.535156-24.539063 24.535156zm-28.386719-138.144531h-94.003906v-64.828125c0-.046875-.003906-.085938-.003906-.132812h49.847656zm-179.699218-64.960937h65.703124c0 .046874-.007812.085937-.007812.132812v64.828125h-95.308594zm-116.023438 151.820312c0-2.371094.488281-4.667969 1.453125-6.828125 1.324219-2.949219 1.136719-6.359375-.503906-9.148437-1.636719-2.789063-4.519531-4.613282-7.742188-4.894532-10.671875-.941406-19.800781-8.5-22.71875-18.804687-1.507812-5.335938-1.285156-10.902344.644531-16.09375 1.867188-5.019531-.546874-10.613281-5.480468-12.699219-15.128906-6.390625-24.902344-21.132812-24.902344-37.554688 0-14.191406 7.214844-27.140624 19.296875-34.644531 3.359375-2.085937 5.175781-5.957031 4.628906-9.875s-3.351562-7.148437-7.15625-8.234375c-24.738281-7.078125-42.019531-30.003906-42.019531-55.753906 0-31.980469 26.019531-58 58-58s58 26.019531 58 58c0 22.675781-13.355469 43.402344-34.019531 52.808594-3.601563 1.636718-5.898438 5.242187-5.859375 9.195312.035156 3.953125 2.402344 7.515625 6.03125 9.082032 14.941406 6.460937 24.597656 21.148437 24.597656 37.417968 0 9.707032-3.480469 19.113282-9.800781 26.492188-3.484375 4.066406-3.144531 10.164062.773437 13.816406 3.449219 3.21875 5.953125 7.335938 7.246094 11.902344 2.179688 7.703125.722656 15.851562-4 22.347656-1.898438 2.617188-2.417969 5.992188-1.390625 9.054688 1.027344 3.066406 3.472656 5.445312 6.566406 6.390624 7.089844 2.164063 11.855469 8.601563 11.855469 16.023438v16.75h-16.75c-9.234375 0-16.75-7.515625-16.75-16.75zm59.265625-35.054688h-5.765625v-10.554687l16.039062-15.886719v16.167969c0 5.664063-4.609374 10.273437-10.273437 10.273437zm294.167969-4.160156c-4.921875 0-8.921875-4-8.921875-8.921875v-11.738281c10.296875 4.816406 19.316406 11.921875 26.398437 20.660156zm0 0"/><path d="m355.089844 253.816406c0-5.519531-4.476563-10-10-10h-15.589844c-5.523438 0-10 4.480469-10 10 0 5.523438 4.476562 10 10 10h15.589844c5.523437 0 10-4.476562 10-10zm0 0"/><path d="m104.441406 88c5.523438 0 10-4.476562 10-10 0-20.09375-16.347656-36.441406-36.441406-36.441406-5.523438 0-10 4.476562-10 10 0 5.523437 4.476562 10 10 10 9.066406 0 16.441406 7.375 16.441406 16.441406 0 5.523438 4.476563 10 10 10zm0 0"/></svg>