<svg viewBox="0 0 48 48" xmlns="http://www.w3.org/2000/svg" xmlns:xlink="http://www.w3.org/1999/xlink" >
<defs>



 <path fill="#000000" id="i-429" d="M36,16.863V8V7V4h-2v3H14V4h-2v3v1v8.863L7.036,34.732L7,41h4v3h2v-3h22v3h2v-3h4v-6L36,16.863z M14,9h20v7h-3v-3.619 l-0.553-0.275C30.356,12.061,28.188,11,24,11s-6.356,1.061-6.447,1.105L17,12.381V16h-3.031L14,9z M29,13.684V16v2v0.314 C28.194,18.58,26.521,19,24,19c-2.522,0-4.196-0.422-5-0.686V18v-2v-2.314C19.806,13.42,21.479,13,24,13 C26.522,13,28.196,13.42,29,13.684z M13.76,18H17v1.617l0.553,0.277C17.644,19.939,19.812,21,24,21s6.356-1.061,6.447-1.105 L31,19.617V18h3.276l0.826,3H24H12.927L13.76,18z M12.371,23h23.283l3.032,11H9.315L12.371,23z M39,39H9v-3h30V39z"/> 
</defs>

<use x="0" y="0" xlink:href="#i-429"/>

</svg>