<svg viewBox="0 0 48 48" xmlns="http://www.w3.org/2000/svg" xmlns:xlink="http://www.w3.org/1999/xlink" >
<defs>



 <path fill="#000000" id="i-430" d="M43,16.863V8V7V4h-2v3H7V4H5v3v1v8.863L0.036,34.732L0,41h4v3h2v-3h36v3h2v-3h4v-6L43,16.863z M7,9h34v7h-2v-3.619 l-0.553-0.275C38.357,12.061,36.188,11,32,11s-6.355,1.061-6.447,1.105L25,12.381V16h-2v-3.619l-0.553-0.275 C22.356,12.061,20.188,11,16,11s-6.356,1.061-6.447,1.105L9,12.381V16H6.969L7,9z M37,13.684v4.631C36.195,18.58,34.521,19,32,19 s-4.197-0.422-5-0.686v-4.629C27.807,13.42,29.48,13,32,13C34.523,13,36.197,13.42,37,13.684z M21,13.684v4.631 C20.194,18.58,18.521,19,16,19c-2.522,0-4.196-0.422-5-0.686v-4.629C11.806,13.42,13.479,13,16,13C18.522,13,20.196,13.42,21,13.684 z M6.76,18H9v1.617l0.553,0.277C9.644,19.939,11.812,21,16,21s6.356-1.061,6.447-1.105L23,19.617V18h2v1.617l0.553,0.277 C25.645,19.939,27.813,21,32,21s6.357-1.061,6.447-1.105L39,19.617V18h2.275l0.828,3H32H16H5.927L6.76,18z M5.371,23h37.283 l3.033,11H2.315L5.371,23z M46,39H2v-3h44V39z"/> 
</defs>

<use x="0" y="0" xlink:href="#i-430"/>

</svg>