<?xml version="1.0" encoding="UTF-8" standalone="no"?> <svg height="530pt" viewBox="-68 -16 530 530.66669" width="530pt" xmlns="http://www.w3.org/2000/svg"><path d="m82.277344 248.75h37.5c6.214844 0 11.25-5.039062 11.25-11.25s-5.035156-11.25-11.25-11.25h-37.5c-6.210938 0-11.25 5.039062-11.25 11.25s5.039062 11.25 11.25 11.25zm0 0"/><path d="m82.277344 306.25h37.5c6.214844 0 11.25-5.039062 11.25-11.25s-5.035156-11.25-11.25-11.25h-37.5c-6.210938 0-11.25 5.039062-11.25 11.25s5.039062 11.25 11.25 11.25zm0 0"/><path d="m82.277344 365h37.5c6.214844 0 11.25-5.039062 11.25-11.25s-5.035156-11.25-11.25-11.25h-37.5c-6.210938 0-11.25 5.039062-11.25 11.25s5.039062 11.25 11.25 11.25zm0 0"/><path d="m82.277344 190h37.5c6.214844 0 11.25-5.039062 11.25-11.25s-5.035156-11.25-11.25-11.25h-37.5c-6.210938 0-11.25 5.039062-11.25 11.25s5.039062 11.25 11.25 11.25zm0 0"/><path d="m299.777344 338.75h28.75c6.214844 0 11.25-5.039062 11.25-11.25s-5.035156-11.25-11.25-11.25h-28.75c-6.210938 0-11.25 5.039062-11.25 11.25s5.039062 11.25 11.25 11.25zm0 0"/><path d="m299.777344 386.25h28.75c6.214844 0 11.25-5.039062 11.25-11.25s-5.035156-11.25-11.25-11.25h-28.75c-6.210938 0-11.25 5.039062-11.25 11.25s5.039062 11.25 11.25 11.25zm0 0"/><path d="m328.527344 416.25h-28.75c-6.210938 0-11.25 5.039062-11.25 11.25s5.039062 11.25 11.25 11.25h28.75c6.214844 0 11.25-5.039062 11.25-11.25s-5.035156-11.25-11.25-11.25zm0 0"/><path d="m299.777344 286.25h28.75c6.214844 0 11.25-5.039062 11.25-11.25s-5.035156-11.25-11.25-11.25h-28.75c-6.210938 0-11.25 5.039062-11.25 11.25s5.039062 11.25 11.25 11.25zm0 0"/><path d="m171.027344 248.75h37.5c6.214844 0 11.25-5.039062 11.25-11.25s-5.035156-11.25-11.25-11.25h-37.5c-6.210938 0-11.25 5.039062-11.25 11.25s5.039062 11.25 11.25 11.25zm0 0"/><path d="m171.027344 306.25h37.5c6.214844 0 11.25-5.039062 11.25-11.25s-5.035156-11.25-11.25-11.25h-37.5c-6.210938 0-11.25 5.039062-11.25 11.25s5.039062 11.25 11.25 11.25zm0 0"/><path d="m171.027344 365h37.5c6.214844 0 11.25-5.039062 11.25-11.25s-5.035156-11.25-11.25-11.25h-37.5c-6.210938 0-11.25 5.039062-11.25 11.25s5.039062 11.25 11.25 11.25zm0 0"/><path d="m171.027344 190h37.5c6.214844 0 11.25-5.039062 11.25-11.25s-5.035156-11.25-11.25-11.25h-37.5c-6.210938 0-11.25 5.039062-11.25 11.25s5.039062 11.25 11.25 11.25zm0 0"/><path d="m8.082031 76.75h56.914063v14.945312h-26.058594c-6.210938 0-11.25 5.039063-11.25 11.25v383.304688c0 6.210938 5.039062 11.25 11.25 11.25h340.039062c6.210938 0 11.25-5.039062 11.25-11.25v-268.195312c0-6.214844-5.039062-11.25-11.25-11.25h-115.601562v-103.859376c0-6.210937-5.03125-11.25-11.25-11.25h-26.054688v-14.945312h56.914063c6.210937 0 11.25-5.035156 11.25-11.25v-54.25c0-6.210938-5.039063-11.25-11.25-11.25h-274.902344c-6.210937 0-11.25 5.039062-11.25 11.25v54.25c0 6.214844 5.039063 11.25 11.25 11.25zm359.644531 152.554688v245.695312h-104.351562v-245.695312zm-190.804687 245.695312h-62.773437v-49.664062h62.773437zm63.953125 0h-41.453125v-60.914062c0-6.214844-5.039063-11.25-11.25-11.25h-85.273437c-6.214844 0-11.25 5.035156-11.25 11.25v60.914062h-41.460938v-360.804688h190.6875zm-37.304688-383.304688h-116.074218v-14.945312h116.074218zm-184.238281-69.195312h252.402344v31.75h-252.402344zm0 0"/></svg>